<mxfile host="app.diagrams.net" modified="2022-03-29T15:38:15.228Z" agent="5.0 (Macintosh; Intel Mac OS X 10_15_7) AppleWebKit/537.36 (KHTML, like Gecko) Chrome/99.0.4844.51 Safari/537.36" etag="O3OrJtRRMJ640ov5jhTT" version="17.1.5" type="github">
  <diagram id="C5RBs43oDa-KdzZeNtuy" name="Page-1">
    <mxGraphModel dx="1160" dy="739" grid="1" gridSize="10" guides="1" tooltips="1" connect="1" arrows="1" fold="1" page="1" pageScale="1" pageWidth="827" pageHeight="1169" math="0" shadow="0">
      <root>
        <mxCell id="WIyWlLk6GJQsqaUBKTNV-0" />
        <mxCell id="WIyWlLk6GJQsqaUBKTNV-1" parent="WIyWlLk6GJQsqaUBKTNV-0" />
        <mxCell id="mLLBI0nYe4yU47RO7_1Q-46" style="edgeStyle=orthogonalEdgeStyle;rounded=0;orthogonalLoop=1;jettySize=auto;html=1;fontSize=20;endArrow=none;endFill=0;dashed=1;" edge="1" parent="WIyWlLk6GJQsqaUBKTNV-1" source="BA5nA2Hfeq59c8QXaOiR-156">
          <mxGeometry relative="1" as="geometry">
            <mxPoint x="205" y="3830" as="targetPoint" />
          </mxGeometry>
        </mxCell>
        <mxCell id="cA6XABB9ZMt0WS9synM3-65" value="" style="rounded=0;orthogonalLoop=1;jettySize=auto;html=1;endArrow=none;endFill=0;sketch=0;exitX=1;exitY=1;exitDx=0;exitDy=0;startArrow=none;" parent="WIyWlLk6GJQsqaUBKTNV-1" edge="1">
          <mxGeometry x="-0.0949" relative="1" as="geometry">
            <mxPoint x="208.53553390593288" y="1256.0355339059329" as="sourcePoint" />
            <mxPoint x="208.53553390593288" y="1256.0355339059329" as="targetPoint" />
            <Array as="points" />
            <mxPoint x="1" as="offset" />
          </mxGeometry>
        </mxCell>
        <mxCell id="BA5nA2Hfeq59c8QXaOiR-143" value="Mobile Client" style="shape=umlLifeline;perimeter=lifelinePerimeter;whiteSpace=wrap;html=1;container=1;collapsible=0;recursiveResize=0;outlineConnect=0;rounded=0;shadow=0;comic=0;labelBackgroundColor=none;strokeWidth=1;fontFamily=Verdana;fontSize=12;align=center;" parent="WIyWlLk6GJQsqaUBKTNV-1" vertex="1">
          <mxGeometry x="295" y="3250" width="100" height="580" as="geometry" />
        </mxCell>
        <mxCell id="BA5nA2Hfeq59c8QXaOiR-144" value="" style="html=1;points=[];perimeter=orthogonalPerimeter;rounded=0;shadow=0;comic=0;labelBackgroundColor=none;strokeWidth=1;fontFamily=Verdana;fontSize=12;align=center;" parent="BA5nA2Hfeq59c8QXaOiR-143" vertex="1">
          <mxGeometry x="45" y="100" width="10" height="440" as="geometry" />
        </mxCell>
        <mxCell id="BA5nA2Hfeq59c8QXaOiR-146" value="Game" style="shape=umlLifeline;perimeter=lifelinePerimeter;whiteSpace=wrap;html=1;container=1;collapsible=0;recursiveResize=0;outlineConnect=0;rounded=0;shadow=0;comic=0;labelBackgroundColor=none;strokeWidth=1;fontFamily=Verdana;fontSize=12;align=center;" parent="WIyWlLk6GJQsqaUBKTNV-1" vertex="1">
          <mxGeometry x="440" y="3250" width="100" height="580" as="geometry" />
        </mxCell>
        <mxCell id="BA5nA2Hfeq59c8QXaOiR-147" value="" style="html=1;points=[];perimeter=orthogonalPerimeter;rounded=0;shadow=0;comic=0;labelBackgroundColor=none;strokeWidth=1;fontFamily=Verdana;fontSize=12;align=center;" parent="BA5nA2Hfeq59c8QXaOiR-146" vertex="1">
          <mxGeometry x="45" y="120" width="10" height="410" as="geometry" />
        </mxCell>
        <mxCell id="BA5nA2Hfeq59c8QXaOiR-232" style="edgeStyle=none;rounded=0;orthogonalLoop=1;jettySize=auto;html=1;endArrow=open;endFill=0;dashed=1;exitX=-0.034;exitY=0.996;exitDx=0;exitDy=0;exitPerimeter=0;" parent="BA5nA2Hfeq59c8QXaOiR-146" edge="1">
          <mxGeometry relative="1" as="geometry">
            <mxPoint x="-89.99999999999994" y="528" as="targetPoint" />
            <mxPoint x="43.80000000000001" y="528" as="sourcePoint" />
          </mxGeometry>
        </mxCell>
        <mxCell id="BA5nA2Hfeq59c8QXaOiR-233" value="objectInfo" style="edgeLabel;html=1;align=center;verticalAlign=middle;resizable=0;points=[];" parent="BA5nA2Hfeq59c8QXaOiR-232" vertex="1" connectable="0">
          <mxGeometry x="0.1134" y="-2" relative="1" as="geometry">
            <mxPoint as="offset" />
          </mxGeometry>
        </mxCell>
        <mxCell id="BA5nA2Hfeq59c8QXaOiR-151" value="Take Object(oid)" style="html=1;verticalAlign=bottom;endArrow=block;labelBackgroundColor=none;fontFamily=Verdana;fontSize=12;elbow=vertical;entryX=0.186;entryY=0.051;entryDx=0;entryDy=0;entryPerimeter=0;" parent="WIyWlLk6GJQsqaUBKTNV-1" source="BA5nA2Hfeq59c8QXaOiR-146" target="BA5nA2Hfeq59c8QXaOiR-159" edge="1">
          <mxGeometry relative="1" as="geometry">
            <mxPoint x="521.2" y="3460" as="sourcePoint" />
            <mxPoint x="757.72" y="3460" as="targetPoint" />
          </mxGeometry>
        </mxCell>
        <mxCell id="BA5nA2Hfeq59c8QXaOiR-152" value="takeObject(oid)" style="html=1;verticalAlign=bottom;endArrow=open;labelBackgroundColor=none;fontFamily=Verdana;fontSize=12;edgeStyle=elbowEdgeStyle;elbow=vertical;endFill=0;" parent="WIyWlLk6GJQsqaUBKTNV-1" source="BA5nA2Hfeq59c8QXaOiR-155" edge="1">
          <mxGeometry relative="1" as="geometry">
            <mxPoint x="275" y="3360" as="sourcePoint" />
            <mxPoint x="340" y="3360" as="targetPoint" />
            <Array as="points">
              <mxPoint x="300" y="3360" />
            </Array>
          </mxGeometry>
        </mxCell>
        <mxCell id="BA5nA2Hfeq59c8QXaOiR-153" value="&lt;div&gt;takeObject(pid, oid)&lt;/div&gt;" style="html=1;verticalAlign=bottom;endArrow=open;entryX=0;entryY=0;labelBackgroundColor=none;fontFamily=Verdana;fontSize=12;edgeStyle=elbowEdgeStyle;elbow=vertical;endFill=0;exitX=0.962;exitY=0.057;exitDx=0;exitDy=0;exitPerimeter=0;" parent="WIyWlLk6GJQsqaUBKTNV-1" source="BA5nA2Hfeq59c8QXaOiR-144" target="BA5nA2Hfeq59c8QXaOiR-147" edge="1">
          <mxGeometry relative="1" as="geometry">
            <mxPoint x="391.20000000000005" y="3370" as="sourcePoint" />
          </mxGeometry>
        </mxCell>
        <mxCell id="BA5nA2Hfeq59c8QXaOiR-155" value="" style="html=1;points=[];perimeter=orthogonalPerimeter;rounded=0;shadow=0;comic=0;labelBackgroundColor=none;strokeWidth=1;fontFamily=Verdana;fontSize=12;align=center;" parent="WIyWlLk6GJQsqaUBKTNV-1" vertex="1">
          <mxGeometry x="200" y="3350" width="10" height="450" as="geometry" />
        </mxCell>
        <mxCell id="BA5nA2Hfeq59c8QXaOiR-156" value="Actor" style="shape=umlActor;verticalLabelPosition=bottom;verticalAlign=top;html=1;outlineConnect=0;" parent="WIyWlLk6GJQsqaUBKTNV-1" vertex="1">
          <mxGeometry x="190" y="3250" width="30" height="60" as="geometry" />
        </mxCell>
        <mxCell id="BA5nA2Hfeq59c8QXaOiR-158" value="p: Player" style="shape=umlLifeline;perimeter=lifelinePerimeter;whiteSpace=wrap;html=1;container=1;collapsible=0;recursiveResize=0;outlineConnect=0;rounded=0;shadow=0;comic=0;labelBackgroundColor=none;strokeWidth=1;fontFamily=Verdana;fontSize=12;align=center;" parent="WIyWlLk6GJQsqaUBKTNV-1" vertex="1">
          <mxGeometry x="601.2" y="3250" width="100" height="580" as="geometry" />
        </mxCell>
        <mxCell id="BA5nA2Hfeq59c8QXaOiR-159" value="" style="html=1;points=[];perimeter=orthogonalPerimeter;rounded=0;shadow=0;comic=0;labelBackgroundColor=none;strokeWidth=1;fontFamily=Verdana;fontSize=12;align=center;" parent="BA5nA2Hfeq59c8QXaOiR-158" vertex="1">
          <mxGeometry x="45" y="210" width="7" height="310" as="geometry" />
        </mxCell>
        <mxCell id="BA5nA2Hfeq59c8QXaOiR-160" value="currentRoom" style="shape=umlLifeline;perimeter=lifelinePerimeter;whiteSpace=wrap;html=1;container=1;collapsible=0;recursiveResize=0;outlineConnect=0;rounded=0;shadow=0;comic=0;labelBackgroundColor=none;strokeWidth=1;fontFamily=Verdana;fontSize=12;align=center;" parent="WIyWlLk6GJQsqaUBKTNV-1" vertex="1">
          <mxGeometry x="749.2000000000003" y="3250" width="100" height="580" as="geometry" />
        </mxCell>
        <mxCell id="BA5nA2Hfeq59c8QXaOiR-161" value="" style="html=1;points=[];perimeter=orthogonalPerimeter;rounded=0;shadow=0;comic=0;labelBackgroundColor=none;strokeWidth=1;fontFamily=Verdana;fontSize=12;align=center;" parent="BA5nA2Hfeq59c8QXaOiR-160" vertex="1">
          <mxGeometry x="45.19" y="310" width="10" height="60" as="geometry" />
        </mxCell>
        <mxCell id="BA5nA2Hfeq59c8QXaOiR-204" value="" style="html=1;points=[];perimeter=orthogonalPerimeter;rounded=0;shadow=0;comic=0;labelBackgroundColor=none;strokeWidth=1;fontFamily=Verdana;fontSize=12;align=center;" parent="BA5nA2Hfeq59c8QXaOiR-160" vertex="1">
          <mxGeometry x="50.19" y="330" width="10" height="20" as="geometry" />
        </mxCell>
        <mxCell id="mLLBI0nYe4yU47RO7_1Q-42" value="" style="edgeStyle=none;rounded=0;orthogonalLoop=1;jettySize=auto;html=1;endArrow=open;endFill=0;dashed=1;entryX=1.012;entryY=0.52;entryDx=0;entryDy=0;entryPerimeter=0;" edge="1" parent="BA5nA2Hfeq59c8QXaOiR-160" source="BA5nA2Hfeq59c8QXaOiR-202">
          <mxGeometry relative="1" as="geometry">
            <mxPoint x="45.190000000000055" y="270" as="sourcePoint" />
            <mxPoint x="-97.1700000000003" y="270.6600000000003" as="targetPoint" />
            <Array as="points" />
          </mxGeometry>
        </mxCell>
        <mxCell id="mLLBI0nYe4yU47RO7_1Q-43" value="false" style="edgeLabel;html=1;align=center;verticalAlign=middle;resizable=0;points=[];" vertex="1" connectable="0" parent="mLLBI0nYe4yU47RO7_1Q-42">
          <mxGeometry x="-0.0143" y="2" relative="1" as="geometry">
            <mxPoint y="-10" as="offset" />
          </mxGeometry>
        </mxCell>
        <mxCell id="BA5nA2Hfeq59c8QXaOiR-163" value="" style="edgeStyle=none;rounded=0;orthogonalLoop=1;jettySize=auto;html=1;dashed=1;endArrow=open;endFill=0;" parent="WIyWlLk6GJQsqaUBKTNV-1" source="BA5nA2Hfeq59c8QXaOiR-150" target="BA5nA2Hfeq59c8QXaOiR-147" edge="1">
          <mxGeometry relative="1" as="geometry">
            <mxPoint x="490" y="3420" as="targetPoint" />
            <Array as="points">
              <mxPoint x="531.2" y="3410" />
              <mxPoint x="531.2" y="3420" />
            </Array>
          </mxGeometry>
        </mxCell>
        <mxCell id="BA5nA2Hfeq59c8QXaOiR-164" value="p" style="edgeLabel;html=1;align=center;verticalAlign=middle;resizable=0;points=[];" parent="BA5nA2Hfeq59c8QXaOiR-163" vertex="1" connectable="0">
          <mxGeometry x="0.0091" relative="1" as="geometry">
            <mxPoint x="8" y="-5" as="offset" />
          </mxGeometry>
        </mxCell>
        <mxCell id="BA5nA2Hfeq59c8QXaOiR-167" value="" style="edgeStyle=none;rounded=0;orthogonalLoop=1;jettySize=auto;html=1;endArrow=open;endFill=0;dashed=1;exitX=-0.077;exitY=1.009;exitDx=0;exitDy=0;exitPerimeter=0;entryX=1.012;entryY=0.52;entryDx=0;entryDy=0;entryPerimeter=0;" parent="WIyWlLk6GJQsqaUBKTNV-1" source="BA5nA2Hfeq59c8QXaOiR-161" target="BA5nA2Hfeq59c8QXaOiR-159" edge="1">
          <mxGeometry relative="1" as="geometry">
            <mxPoint x="801.3900000000001" y="3630" as="sourcePoint" />
            <mxPoint x="651.2003448275862" y="3629.9999999999995" as="targetPoint" />
            <Array as="points" />
          </mxGeometry>
        </mxCell>
        <mxCell id="BA5nA2Hfeq59c8QXaOiR-209" value="obj" style="edgeLabel;html=1;align=center;verticalAlign=middle;resizable=0;points=[];" parent="BA5nA2Hfeq59c8QXaOiR-167" vertex="1" connectable="0">
          <mxGeometry x="-0.0143" y="2" relative="1" as="geometry">
            <mxPoint y="-10" as="offset" />
          </mxGeometry>
        </mxCell>
        <mxCell id="BA5nA2Hfeq59c8QXaOiR-168" value="removeObject(oid)" style="edgeStyle=none;rounded=0;orthogonalLoop=1;jettySize=auto;html=1;entryX=0.1;entryY=0.081;entryDx=0;entryDy=0;entryPerimeter=0;endArrow=block;endFill=1;exitX=1;exitY=0.076;exitDx=0;exitDy=0;exitPerimeter=0;" parent="WIyWlLk6GJQsqaUBKTNV-1" target="BA5nA2Hfeq59c8QXaOiR-161" edge="1">
          <mxGeometry relative="1" as="geometry">
            <mxPoint x="651.3900000000001" y="3566.7199999999993" as="sourcePoint" />
          </mxGeometry>
        </mxCell>
        <mxCell id="BA5nA2Hfeq59c8QXaOiR-169" style="edgeStyle=none;rounded=0;orthogonalLoop=1;jettySize=auto;html=1;endArrow=open;endFill=0;dashed=1;exitX=-0.034;exitY=0.996;exitDx=0;exitDy=0;exitPerimeter=0;" parent="WIyWlLk6GJQsqaUBKTNV-1" source="BA5nA2Hfeq59c8QXaOiR-159" edge="1">
          <mxGeometry relative="1" as="geometry">
            <mxPoint x="495" y="3770" as="targetPoint" />
            <mxPoint x="625.0000000000002" y="3524.5299999999997" as="sourcePoint" />
          </mxGeometry>
        </mxCell>
        <mxCell id="BA5nA2Hfeq59c8QXaOiR-231" value="objectInfo" style="edgeLabel;html=1;align=center;verticalAlign=middle;resizable=0;points=[];" parent="BA5nA2Hfeq59c8QXaOiR-169" vertex="1" connectable="0">
          <mxGeometry x="0.1134" y="-2" relative="1" as="geometry">
            <mxPoint as="offset" />
          </mxGeometry>
        </mxCell>
        <mxCell id="BA5nA2Hfeq59c8QXaOiR-171" value="update" style="edgeStyle=none;rounded=0;orthogonalLoop=1;jettySize=auto;html=1;entryX=0.986;entryY=0.972;entryDx=0;entryDy=0;entryPerimeter=0;endArrow=open;endFill=0;exitX=-0.413;exitY=0.996;exitDx=0;exitDy=0;exitPerimeter=0;" parent="WIyWlLk6GJQsqaUBKTNV-1" source="BA5nA2Hfeq59c8QXaOiR-144" target="BA5nA2Hfeq59c8QXaOiR-155" edge="1">
          <mxGeometry relative="1" as="geometry">
            <mxPoint x="340" y="3549.92" as="sourcePoint" />
          </mxGeometry>
        </mxCell>
        <mxCell id="BA5nA2Hfeq59c8QXaOiR-150" value="" style="html=1;points=[];perimeter=orthogonalPerimeter;rounded=0;shadow=0;comic=0;labelBackgroundColor=none;strokeWidth=1;fontFamily=Verdana;fontSize=12;align=center;" parent="WIyWlLk6GJQsqaUBKTNV-1" vertex="1">
          <mxGeometry x="495" y="3380" width="10" height="30" as="geometry" />
        </mxCell>
        <mxCell id="BA5nA2Hfeq59c8QXaOiR-202" value="inventory: Inventory" style="shape=umlLifeline;perimeter=lifelinePerimeter;whiteSpace=wrap;html=1;container=1;collapsible=0;recursiveResize=0;outlineConnect=0;rounded=0;shadow=0;comic=0;labelBackgroundColor=none;strokeWidth=1;fontFamily=Verdana;fontSize=12;align=center;" parent="WIyWlLk6GJQsqaUBKTNV-1" vertex="1">
          <mxGeometry x="921.2" y="3250" width="100" height="580" as="geometry" />
        </mxCell>
        <mxCell id="BA5nA2Hfeq59c8QXaOiR-211" value="" style="html=1;points=[];perimeter=orthogonalPerimeter;rounded=0;shadow=0;comic=0;labelBackgroundColor=none;strokeWidth=1;fontFamily=Verdana;fontSize=12;align=center;" parent="BA5nA2Hfeq59c8QXaOiR-202" vertex="1">
          <mxGeometry x="47.170000000000016" y="390" width="10" height="60" as="geometry" />
        </mxCell>
        <mxCell id="BA5nA2Hfeq59c8QXaOiR-212" value="" style="html=1;points=[];perimeter=orthogonalPerimeter;rounded=0;shadow=0;comic=0;labelBackgroundColor=none;strokeWidth=1;fontFamily=Verdana;fontSize=12;align=center;" parent="BA5nA2Hfeq59c8QXaOiR-202" vertex="1">
          <mxGeometry x="52.170000000000016" y="400" width="10" height="30" as="geometry" />
        </mxCell>
        <mxCell id="BA5nA2Hfeq59c8QXaOiR-216" value="" style="rounded=0;orthogonalLoop=1;jettySize=auto;html=1;endArrow=block;endFill=1;entryX=1.077;entryY=0.258;entryDx=0;entryDy=0;entryPerimeter=0;exitX=0.997;exitY=0.118;exitDx=0;exitDy=0;exitPerimeter=0;" parent="BA5nA2Hfeq59c8QXaOiR-202" target="BA5nA2Hfeq59c8QXaOiR-212" edge="1" source="BA5nA2Hfeq59c8QXaOiR-211">
          <mxGeometry x="0.7783" y="30" relative="1" as="geometry">
            <mxPoint x="67.14999999999958" y="406.65999999999985" as="targetPoint" />
            <mxPoint x="57.980000000000416" y="390" as="sourcePoint" />
            <Array as="points">
              <mxPoint x="98.79999999999995" y="397" />
              <mxPoint x="98.79999999999995" y="407" />
            </Array>
            <mxPoint as="offset" />
          </mxGeometry>
        </mxCell>
        <mxCell id="BA5nA2Hfeq59c8QXaOiR-217" value="add(obj)" style="edgeLabel;html=1;align=center;verticalAlign=middle;resizable=0;points=[];" parent="BA5nA2Hfeq59c8QXaOiR-216" vertex="1" connectable="0">
          <mxGeometry x="-0.2219" y="-1" relative="1" as="geometry">
            <mxPoint x="-5" y="-11" as="offset" />
          </mxGeometry>
        </mxCell>
        <mxCell id="BA5nA2Hfeq59c8QXaOiR-218" value="" style="edgeStyle=none;rounded=0;orthogonalLoop=1;jettySize=auto;html=1;dashed=1;entryX=0.919;entryY=0.299;entryDx=0;entryDy=0;entryPerimeter=0;endArrow=open;endFill=0;" parent="BA5nA2Hfeq59c8QXaOiR-202" edge="1">
          <mxGeometry relative="1" as="geometry">
            <mxPoint x="57.170000000000016" y="440.8299999999999" as="targetPoint" />
            <Array as="points">
              <mxPoint x="94.18000000000023" y="430" />
              <mxPoint x="94.18000000000023" y="440" />
            </Array>
            <mxPoint x="64.17000000000002" y="430" as="sourcePoint" />
          </mxGeometry>
        </mxCell>
        <mxCell id="mLLBI0nYe4yU47RO7_1Q-41" value="" style="html=1;points=[];perimeter=orthogonalPerimeter;rounded=0;shadow=0;comic=0;labelBackgroundColor=none;strokeWidth=1;fontFamily=Verdana;fontSize=12;align=center;" vertex="1" parent="BA5nA2Hfeq59c8QXaOiR-202">
          <mxGeometry x="45" y="240" width="10" height="30" as="geometry" />
        </mxCell>
        <mxCell id="BA5nA2Hfeq59c8QXaOiR-205" value="" style="rounded=0;orthogonalLoop=1;jettySize=auto;html=1;endArrow=block;endFill=1;" parent="WIyWlLk6GJQsqaUBKTNV-1" edge="1">
          <mxGeometry x="0.4431" y="23" relative="1" as="geometry">
            <mxPoint x="810" y="3580" as="targetPoint" />
            <mxPoint x="804.3900000000006" y="3566" as="sourcePoint" />
            <Array as="points">
              <mxPoint x="830" y="3566" />
              <mxPoint x="830" y="3580" />
            </Array>
            <mxPoint as="offset" />
          </mxGeometry>
        </mxCell>
        <mxCell id="BA5nA2Hfeq59c8QXaOiR-206" value="remove(oid)" style="edgeLabel;html=1;align=center;verticalAlign=middle;resizable=0;points=[];" parent="BA5nA2Hfeq59c8QXaOiR-205" vertex="1" connectable="0">
          <mxGeometry x="-0.2219" y="-1" relative="1" as="geometry">
            <mxPoint x="41" y="6" as="offset" />
          </mxGeometry>
        </mxCell>
        <mxCell id="BA5nA2Hfeq59c8QXaOiR-207" value="" style="edgeStyle=none;rounded=0;orthogonalLoop=1;jettySize=auto;html=1;dashed=1;entryX=0.919;entryY=0.299;entryDx=0;entryDy=0;entryPerimeter=0;endArrow=open;endFill=0;" parent="WIyWlLk6GJQsqaUBKTNV-1" edge="1">
          <mxGeometry relative="1" as="geometry">
            <mxPoint x="804.3900000000001" y="3610.83" as="targetPoint" />
            <Array as="points">
              <mxPoint x="820" y="3600" />
              <mxPoint x="820" y="3611" />
            </Array>
            <mxPoint x="811.3900000000001" y="3600" as="sourcePoint" />
          </mxGeometry>
        </mxCell>
        <mxCell id="BA5nA2Hfeq59c8QXaOiR-208" value="obj" style="edgeLabel;html=1;align=center;verticalAlign=middle;resizable=0;points=[];" parent="BA5nA2Hfeq59c8QXaOiR-207" vertex="1" connectable="0">
          <mxGeometry x="0.0091" relative="1" as="geometry">
            <mxPoint x="13" y="-4" as="offset" />
          </mxGeometry>
        </mxCell>
        <mxCell id="BA5nA2Hfeq59c8QXaOiR-215" value="addObject(obj)" style="edgeStyle=none;rounded=0;orthogonalLoop=1;jettySize=auto;html=1;entryX=0.1;entryY=0.081;entryDx=0;entryDy=0;entryPerimeter=0;endArrow=block;endFill=1;" parent="WIyWlLk6GJQsqaUBKTNV-1" target="BA5nA2Hfeq59c8QXaOiR-211" edge="1">
          <mxGeometry relative="1" as="geometry">
            <mxPoint x="651.2003448275862" y="3644.8599999999997" as="sourcePoint" />
          </mxGeometry>
        </mxCell>
        <mxCell id="BA5nA2Hfeq59c8QXaOiR-213" value="" style="edgeStyle=none;rounded=0;orthogonalLoop=1;jettySize=auto;html=1;endArrow=open;endFill=0;dashed=1;exitX=-0.006;exitY=0.994;exitDx=0;exitDy=0;exitPerimeter=0;entryX=0.83;entryY=0.773;entryDx=0;entryDy=0;entryPerimeter=0;" parent="WIyWlLk6GJQsqaUBKTNV-1" source="BA5nA2Hfeq59c8QXaOiR-211" target="BA5nA2Hfeq59c8QXaOiR-159" edge="1">
          <mxGeometry relative="1" as="geometry">
            <mxPoint x="975.3700000000001" y="3710" as="sourcePoint" />
            <mxPoint x="651.2003448275862" y="3709.9999999999995" as="targetPoint" />
          </mxGeometry>
        </mxCell>
        <mxCell id="BA5nA2Hfeq59c8QXaOiR-220" value="obj:Object" style="shape=umlLifeline;perimeter=lifelinePerimeter;whiteSpace=wrap;html=1;container=1;collapsible=0;recursiveResize=0;outlineConnect=0;rounded=0;shadow=0;comic=0;labelBackgroundColor=none;strokeWidth=1;fontFamily=Verdana;fontSize=12;align=center;" parent="WIyWlLk6GJQsqaUBKTNV-1" vertex="1">
          <mxGeometry x="1071.2" y="3250" width="100" height="580" as="geometry" />
        </mxCell>
        <mxCell id="BA5nA2Hfeq59c8QXaOiR-226" value="" style="html=1;points=[];perimeter=orthogonalPerimeter;rounded=0;shadow=0;comic=0;labelBackgroundColor=none;strokeWidth=1;fontFamily=Verdana;fontSize=12;align=center;" parent="BA5nA2Hfeq59c8QXaOiR-220" vertex="1">
          <mxGeometry x="50.19" y="490" width="10" height="20" as="geometry" />
        </mxCell>
        <mxCell id="BA5nA2Hfeq59c8QXaOiR-227" value="getInfo()" style="edgeStyle=none;rounded=0;orthogonalLoop=1;jettySize=auto;html=1;endArrow=block;endFill=1;" parent="WIyWlLk6GJQsqaUBKTNV-1" edge="1">
          <mxGeometry relative="1" as="geometry">
            <mxPoint x="651.8404347826086" y="3740" as="sourcePoint" />
            <mxPoint x="1120.89" y="3739.9999999999995" as="targetPoint" />
          </mxGeometry>
        </mxCell>
        <mxCell id="BA5nA2Hfeq59c8QXaOiR-228" style="edgeStyle=none;rounded=0;orthogonalLoop=1;jettySize=auto;html=1;endArrow=open;endFill=0;dashed=1;entryX=1;entryY=0.955;entryDx=0;entryDy=0;entryPerimeter=0;" parent="WIyWlLk6GJQsqaUBKTNV-1" edge="1">
          <mxGeometry relative="1" as="geometry">
            <mxPoint x="651.3900000000001" y="3760.0999999999995" as="targetPoint" />
            <mxPoint x="1120.89" y="3760.0999999999995" as="sourcePoint" />
          </mxGeometry>
        </mxCell>
        <mxCell id="BA5nA2Hfeq59c8QXaOiR-229" value="objectInfo" style="edgeLabel;html=1;align=center;verticalAlign=middle;resizable=0;points=[];" parent="BA5nA2Hfeq59c8QXaOiR-228" vertex="1" connectable="0">
          <mxGeometry x="-0.0327" y="1" relative="1" as="geometry">
            <mxPoint x="-4" y="-1" as="offset" />
          </mxGeometry>
        </mxCell>
        <mxCell id="mLLBI0nYe4yU47RO7_1Q-5" value="" style="group" vertex="1" connectable="0" parent="WIyWlLk6GJQsqaUBKTNV-1">
          <mxGeometry x="80" y="1180" width="593" height="298.8955339059329" as="geometry" />
        </mxCell>
        <mxCell id="VWi0gB3o-v6QvP-utgQW-3" value="" style="group" parent="mLLBI0nYe4yU47RO7_1Q-5" vertex="1" connectable="0">
          <mxGeometry x="50" width="175" height="120" as="geometry" />
        </mxCell>
        <mxCell id="1VWSUXiwOZT1shFSJKdf-57" value="Mobile Client" style="html=1;align=left;verticalAlign=top;" parent="VWi0gB3o-v6QvP-utgQW-3" vertex="1">
          <mxGeometry width="160" height="120" as="geometry" />
        </mxCell>
        <mxCell id="1VWSUXiwOZT1shFSJKdf-73" value="" style="shape=module;align=left;spacingLeft=20;align=center;verticalAlign=top;" parent="VWi0gB3o-v6QvP-utgQW-3" vertex="1">
          <mxGeometry x="120" y="7.5" width="32" height="37.5" as="geometry" />
        </mxCell>
        <mxCell id="1VWSUXiwOZT1shFSJKdf-74" value="MG" style="html=1;" parent="VWi0gB3o-v6QvP-utgQW-3" vertex="1">
          <mxGeometry x="145" y="60" width="30" height="30" as="geometry" />
        </mxCell>
        <mxCell id="1VWSUXiwOZT1shFSJKdf-76" style="edgeStyle=orthogonalEdgeStyle;rounded=0;orthogonalLoop=1;jettySize=auto;html=1;endArrow=none;endFill=0;entryX=-0.054;entryY=0.601;entryDx=0;entryDy=0;entryPerimeter=0;" parent="mLLBI0nYe4yU47RO7_1Q-5" source="1VWSUXiwOZT1shFSJKdf-74" target="1VWSUXiwOZT1shFSJKdf-77" edge="1">
          <mxGeometry relative="1" as="geometry" />
        </mxCell>
        <mxCell id="cA6XABB9ZMt0WS9synM3-66" value="" style="rounded=0;orthogonalLoop=1;jettySize=auto;html=1;endArrow=none;endFill=0;sketch=0;exitX=1;exitY=1;exitDx=0;exitDy=0;startArrow=none;" parent="mLLBI0nYe4yU47RO7_1Q-5" edge="1">
          <mxGeometry x="-0.0949" relative="1" as="geometry">
            <mxPoint x="242.03553390593288" y="298.8955339059329" as="sourcePoint" />
            <mxPoint x="242.03553390593288" y="298.8955339059329" as="targetPoint" />
            <Array as="points" />
            <mxPoint x="1" as="offset" />
          </mxGeometry>
        </mxCell>
        <mxCell id="cA6XABB9ZMt0WS9synM3-75" value="&lt;&lt;interface&gt;&gt;&#xa;GameServerToMobileClient&#xa;" style="swimlane;fontStyle=1;align=center;verticalAlign=top;childLayout=stackLayout;horizontal=1;startSize=40;horizontalStack=0;resizeParent=1;resizeParentMax=0;resizeLast=0;collapsible=1;marginBottom=0;" parent="mLLBI0nYe4yU47RO7_1Q-5" vertex="1">
          <mxGeometry x="178" y="154.91999999999996" width="237" height="110" as="geometry" />
        </mxCell>
        <mxCell id="cA6XABB9ZMt0WS9synM3-78" value="takeObject (playerId, objectId): ObjectInfo&#xa;layDownObject (playerId, objectId)&#xa;listAvalibleObjects (playerId): ObjectInfo[]" style="text;strokeColor=none;fillColor=none;align=left;verticalAlign=top;spacingLeft=4;spacingRight=4;overflow=hidden;rotatable=0;points=[[0,0.5],[1,0.5]];portConstraint=eastwest;" parent="cA6XABB9ZMt0WS9synM3-75" vertex="1">
          <mxGeometry y="40" width="237" height="70" as="geometry" />
        </mxCell>
        <mxCell id="VWi0gB3o-v6QvP-utgQW-1" value="" style="group" parent="mLLBI0nYe4yU47RO7_1Q-5" vertex="1" connectable="0">
          <mxGeometry x="320" width="190" height="120" as="geometry" />
        </mxCell>
        <mxCell id="1VWSUXiwOZT1shFSJKdf-56" value="GAME SERVER" style="html=1;align=left;verticalAlign=top;" parent="VWi0gB3o-v6QvP-utgQW-1" vertex="1">
          <mxGeometry x="-10" y="-2.142857142857143" width="190" height="120" as="geometry" />
        </mxCell>
        <mxCell id="1VWSUXiwOZT1shFSJKdf-72" value="" style="shape=module;align=left;spacingLeft=20;align=center;verticalAlign=top;" parent="VWi0gB3o-v6QvP-utgQW-1" vertex="1">
          <mxGeometry x="135" y="8.571428571428571" width="32" height="42.857142857142854" as="geometry" />
        </mxCell>
        <mxCell id="VWi0gB3o-v6QvP-utgQW-2" value="" style="group" parent="VWi0gB3o-v6QvP-utgQW-1" vertex="1" connectable="0">
          <mxGeometry x="-30" y="60" width="35" height="30" as="geometry" />
        </mxCell>
        <mxCell id="1VWSUXiwOZT1shFSJKdf-75" value="GM" style="html=1;" parent="VWi0gB3o-v6QvP-utgQW-2" vertex="1">
          <mxGeometry x="5" y="4.285714285714286" width="30" height="25.71428571428571" as="geometry" />
        </mxCell>
        <mxCell id="1VWSUXiwOZT1shFSJKdf-77" value="GM" style="html=1;" parent="VWi0gB3o-v6QvP-utgQW-2" vertex="1">
          <mxGeometry width="30" height="25.71428571428571" as="geometry" />
        </mxCell>
        <mxCell id="VWi0gB3o-v6QvP-utgQW-15" value="" style="endArrow=open;dashed=1;html=1;dashPattern=1 3;strokeWidth=2;rounded=0;exitX=1;exitY=0.5;exitDx=0;exitDy=0;entryX=-0.01;entryY=0.306;entryDx=0;entryDy=0;endFill=0;entryPerimeter=0;" parent="mLLBI0nYe4yU47RO7_1Q-5" source="cA6XABB9ZMt0WS9synM3-46" target="cA6XABB9ZMt0WS9synM3-78" edge="1">
          <mxGeometry width="50" height="50" relative="1" as="geometry">
            <mxPoint x="288" y="315.36" as="sourcePoint" />
            <mxPoint x="136" y="322.36" as="targetPoint" />
          </mxGeometry>
        </mxCell>
        <mxCell id="VWi0gB3o-v6QvP-utgQW-16" value="" style="group" parent="mLLBI0nYe4yU47RO7_1Q-5" vertex="1" connectable="0">
          <mxGeometry y="165.36" width="143" height="120" as="geometry" />
        </mxCell>
        <mxCell id="cA6XABB9ZMt0WS9synM3-46" value="MobileClient" style="html=1;align=left;verticalAlign=top;" parent="VWi0gB3o-v6QvP-utgQW-16" vertex="1">
          <mxGeometry width="143" height="120" as="geometry" />
        </mxCell>
        <mxCell id="cA6XABB9ZMt0WS9synM3-47" value="" style="shape=module;align=left;spacingLeft=20;align=center;verticalAlign=top;" parent="VWi0gB3o-v6QvP-utgQW-16" vertex="1">
          <mxGeometry x="104" y="10" width="32" height="50" as="geometry" />
        </mxCell>
        <mxCell id="VWi0gB3o-v6QvP-utgQW-17" value="" style="group" parent="mLLBI0nYe4yU47RO7_1Q-5" vertex="1" connectable="0">
          <mxGeometry x="450" y="165.36" width="143" height="120" as="geometry" />
        </mxCell>
        <mxCell id="VWi0gB3o-v6QvP-utgQW-18" value="GameServer" style="html=1;align=left;verticalAlign=top;" parent="VWi0gB3o-v6QvP-utgQW-17" vertex="1">
          <mxGeometry width="143" height="120" as="geometry" />
        </mxCell>
        <mxCell id="VWi0gB3o-v6QvP-utgQW-19" value="" style="shape=module;align=left;spacingLeft=20;align=center;verticalAlign=top;" parent="VWi0gB3o-v6QvP-utgQW-17" vertex="1">
          <mxGeometry x="104" y="10" width="32" height="50" as="geometry" />
        </mxCell>
        <mxCell id="VWi0gB3o-v6QvP-utgQW-20" value="" style="endArrow=block;dashed=1;html=1;dashPattern=1 3;strokeWidth=2;rounded=0;endFill=0;entryX=1.011;entryY=0.317;entryDx=0;entryDy=0;exitX=0;exitY=0.5;exitDx=0;exitDy=0;entryPerimeter=0;" parent="mLLBI0nYe4yU47RO7_1Q-5" target="cA6XABB9ZMt0WS9synM3-78" edge="1" source="VWi0gB3o-v6QvP-utgQW-18">
          <mxGeometry width="50" height="50" relative="1" as="geometry">
            <mxPoint x="570" y="240.36" as="sourcePoint" />
            <mxPoint x="615" y="335.3588059701493" as="targetPoint" />
          </mxGeometry>
        </mxCell>
        <mxCell id="mLLBI0nYe4yU47RO7_1Q-2" value="" style="rounded=0;whiteSpace=wrap;html=1;" vertex="1" parent="mLLBI0nYe4yU47RO7_1Q-5">
          <mxGeometry x="138" y="214.86" width="10" height="20" as="geometry" />
        </mxCell>
        <mxCell id="mLLBI0nYe4yU47RO7_1Q-3" value="" style="rounded=0;whiteSpace=wrap;html=1;" vertex="1" parent="mLLBI0nYe4yU47RO7_1Q-5">
          <mxGeometry x="448" y="220.86" width="10" height="20" as="geometry" />
        </mxCell>
        <mxCell id="mLLBI0nYe4yU47RO7_1Q-4" value="" style="rounded=0;whiteSpace=wrap;html=1;" vertex="1" parent="mLLBI0nYe4yU47RO7_1Q-5">
          <mxGeometry x="445" y="216.86" width="10" height="20" as="geometry" />
        </mxCell>
        <mxCell id="mLLBI0nYe4yU47RO7_1Q-6" value="" style="group" vertex="1" connectable="0" parent="WIyWlLk6GJQsqaUBKTNV-1">
          <mxGeometry x="40" y="70" width="747" height="326" as="geometry" />
        </mxCell>
        <mxCell id="zkfFHV4jXpPFQw0GAbJ--0" value="GAME" style="swimlane;fontStyle=2;align=center;verticalAlign=top;childLayout=stackLayout;horizontal=1;startSize=26;horizontalStack=0;resizeParent=1;resizeLast=0;collapsible=1;marginBottom=0;rounded=0;shadow=0;strokeWidth=1;" parent="mLLBI0nYe4yU47RO7_1Q-6" vertex="1" collapsed="1">
          <mxGeometry x="5" width="160" height="26" as="geometry">
            <mxRectangle x="140" y="120" width="160" height="138" as="alternateBounds" />
          </mxGeometry>
        </mxCell>
        <mxCell id="zkfFHV4jXpPFQw0GAbJ--1" value="Name" style="text;align=left;verticalAlign=top;spacingLeft=4;spacingRight=4;overflow=hidden;rotatable=0;points=[[0,0.5],[1,0.5]];portConstraint=eastwest;" parent="zkfFHV4jXpPFQw0GAbJ--0" vertex="1">
          <mxGeometry y="26" width="160" height="26" as="geometry" />
        </mxCell>
        <mxCell id="zkfFHV4jXpPFQw0GAbJ--2" value="Phone Number" style="text;align=left;verticalAlign=top;spacingLeft=4;spacingRight=4;overflow=hidden;rotatable=0;points=[[0,0.5],[1,0.5]];portConstraint=eastwest;rounded=0;shadow=0;html=0;" parent="zkfFHV4jXpPFQw0GAbJ--0" vertex="1">
          <mxGeometry y="52" width="160" height="26" as="geometry" />
        </mxCell>
        <mxCell id="zkfFHV4jXpPFQw0GAbJ--3" value="Email Address" style="text;align=left;verticalAlign=top;spacingLeft=4;spacingRight=4;overflow=hidden;rotatable=0;points=[[0,0.5],[1,0.5]];portConstraint=eastwest;rounded=0;shadow=0;html=0;" parent="zkfFHV4jXpPFQw0GAbJ--0" vertex="1">
          <mxGeometry y="78" width="160" height="26" as="geometry" />
        </mxCell>
        <mxCell id="zkfFHV4jXpPFQw0GAbJ--4" value="" style="line;html=1;strokeWidth=1;align=left;verticalAlign=middle;spacingTop=-1;spacingLeft=3;spacingRight=3;rotatable=0;labelPosition=right;points=[];portConstraint=eastwest;" parent="zkfFHV4jXpPFQw0GAbJ--0" vertex="1">
          <mxGeometry y="104" width="160" height="8" as="geometry" />
        </mxCell>
        <mxCell id="zkfFHV4jXpPFQw0GAbJ--5" value="Purchase Parking Pass" style="text;align=left;verticalAlign=top;spacingLeft=4;spacingRight=4;overflow=hidden;rotatable=0;points=[[0,0.5],[1,0.5]];portConstraint=eastwest;" parent="zkfFHV4jXpPFQw0GAbJ--0" vertex="1">
          <mxGeometry y="112" width="160" height="26" as="geometry" />
        </mxCell>
        <mxCell id="zkfFHV4jXpPFQw0GAbJ--17" value="LEVEL" style="swimlane;fontStyle=0;align=center;verticalAlign=top;childLayout=stackLayout;horizontal=1;startSize=26;horizontalStack=0;resizeParent=1;resizeLast=0;collapsible=1;marginBottom=0;rounded=0;shadow=0;strokeWidth=1;" parent="mLLBI0nYe4yU47RO7_1Q-6" vertex="1" collapsed="1">
          <mxGeometry x="305" width="160" height="26" as="geometry">
            <mxRectangle x="508" y="110" width="160" height="70" as="alternateBounds" />
          </mxGeometry>
        </mxCell>
        <mxCell id="zkfFHV4jXpPFQw0GAbJ--23" value="" style="line;html=1;strokeWidth=1;align=left;verticalAlign=middle;spacingTop=-1;spacingLeft=3;spacingRight=3;rotatable=0;labelPosition=right;points=[];portConstraint=eastwest;" parent="zkfFHV4jXpPFQw0GAbJ--17" vertex="1">
          <mxGeometry y="26" width="160" height="24" as="geometry" />
        </mxCell>
        <mxCell id="zkfFHV4jXpPFQw0GAbJ--26" value="" style="endArrow=none;shadow=0;strokeWidth=1;rounded=0;endFill=0;edgeStyle=elbowEdgeStyle;elbow=vertical;" parent="mLLBI0nYe4yU47RO7_1Q-6" source="zkfFHV4jXpPFQw0GAbJ--0" target="zkfFHV4jXpPFQw0GAbJ--17" edge="1">
          <mxGeometry x="0.5" y="41" relative="1" as="geometry">
            <mxPoint x="215" y="82" as="sourcePoint" />
            <mxPoint x="375" y="82" as="targetPoint" />
            <mxPoint x="-40" y="32" as="offset" />
          </mxGeometry>
        </mxCell>
        <mxCell id="zkfFHV4jXpPFQw0GAbJ--27" value="1" style="resizable=0;align=left;verticalAlign=bottom;labelBackgroundColor=none;fontSize=12;" parent="zkfFHV4jXpPFQw0GAbJ--26" connectable="0" vertex="1">
          <mxGeometry x="-1" relative="1" as="geometry">
            <mxPoint y="4" as="offset" />
          </mxGeometry>
        </mxCell>
        <mxCell id="zkfFHV4jXpPFQw0GAbJ--28" value="1..*" style="resizable=0;align=right;verticalAlign=bottom;labelBackgroundColor=none;fontSize=12;" parent="zkfFHV4jXpPFQw0GAbJ--26" connectable="0" vertex="1">
          <mxGeometry x="1" relative="1" as="geometry">
            <mxPoint x="-7" y="4" as="offset" />
          </mxGeometry>
        </mxCell>
        <mxCell id="sU_c6Er136trvMsLBxcg-0" value="ROOM" style="swimlane;fontStyle=0;align=center;verticalAlign=top;childLayout=stackLayout;horizontal=1;startSize=26;horizontalStack=0;resizeParent=1;resizeLast=0;collapsible=1;marginBottom=0;rounded=0;shadow=0;strokeWidth=1;" parent="mLLBI0nYe4yU47RO7_1Q-6" vertex="1" collapsed="1">
          <mxGeometry x="300" y="110" width="170" height="26" as="geometry">
            <mxRectangle x="465" y="220" width="155" height="120" as="alternateBounds" />
          </mxGeometry>
        </mxCell>
        <mxCell id="sU_c6Er136trvMsLBxcg-1" value="bool isSpecial" style="text;align=left;verticalAlign=top;spacingLeft=4;spacingRight=4;overflow=hidden;rotatable=0;points=[[0,0.5],[1,0.5]];portConstraint=eastwest;" parent="sU_c6Er136trvMsLBxcg-0" vertex="1">
          <mxGeometry y="26" width="155" height="26" as="geometry" />
        </mxCell>
        <mxCell id="sU_c6Er136trvMsLBxcg-2" value="" style="line;html=1;strokeWidth=1;align=left;verticalAlign=middle;spacingTop=-1;spacingLeft=3;spacingRight=3;rotatable=0;labelPosition=right;points=[];portConstraint=eastwest;" parent="sU_c6Er136trvMsLBxcg-0" vertex="1">
          <mxGeometry y="52" width="155" height="58" as="geometry" />
        </mxCell>
        <mxCell id="sU_c6Er136trvMsLBxcg-8" style="edgeStyle=orthogonalEdgeStyle;rounded=0;orthogonalLoop=1;jettySize=auto;html=1;exitX=0.5;exitY=1;exitDx=0;exitDy=0;entryX=0.5;entryY=0;entryDx=0;entryDy=0;endArrow=none;endFill=0;" parent="mLLBI0nYe4yU47RO7_1Q-6" source="zkfFHV4jXpPFQw0GAbJ--17" target="sU_c6Er136trvMsLBxcg-0" edge="1">
          <mxGeometry relative="1" as="geometry" />
        </mxCell>
        <mxCell id="sU_c6Er136trvMsLBxcg-3" value="OBJECT" style="swimlane;fontStyle=0;align=center;verticalAlign=top;childLayout=stackLayout;horizontal=1;startSize=26;horizontalStack=0;resizeParent=1;resizeLast=0;collapsible=1;marginBottom=0;rounded=0;shadow=0;strokeWidth=1;" parent="mLLBI0nYe4yU47RO7_1Q-6" vertex="1" collapsed="1">
          <mxGeometry x="577" y="300" width="170" height="26" as="geometry">
            <mxRectangle x="667" y="370" width="160" height="70" as="alternateBounds" />
          </mxGeometry>
        </mxCell>
        <mxCell id="sU_c6Er136trvMsLBxcg-5" value="" style="line;html=1;strokeWidth=1;align=left;verticalAlign=middle;spacingTop=-1;spacingLeft=3;spacingRight=3;rotatable=0;labelPosition=right;points=[];portConstraint=eastwest;" parent="sU_c6Er136trvMsLBxcg-3" vertex="1">
          <mxGeometry y="26" width="160" height="8" as="geometry" />
        </mxCell>
        <mxCell id="sU_c6Er136trvMsLBxcg-21" style="edgeStyle=orthogonalEdgeStyle;rounded=0;orthogonalLoop=1;jettySize=auto;html=1;exitX=1;exitY=0.5;exitDx=0;exitDy=0;entryX=0.5;entryY=0;entryDx=0;entryDy=0;endArrow=none;endFill=0;" parent="mLLBI0nYe4yU47RO7_1Q-6" source="sU_c6Er136trvMsLBxcg-0" target="sU_c6Er136trvMsLBxcg-3" edge="1">
          <mxGeometry relative="1" as="geometry" />
        </mxCell>
        <mxCell id="sU_c6Er136trvMsLBxcg-6" value="PLAYER" style="swimlane;fontStyle=0;align=center;verticalAlign=top;childLayout=stackLayout;horizontal=1;startSize=26;horizontalStack=0;resizeParent=1;resizeLast=0;collapsible=1;marginBottom=0;rounded=0;shadow=0;strokeWidth=1;" parent="mLLBI0nYe4yU47RO7_1Q-6" vertex="1" collapsed="1">
          <mxGeometry y="300" width="170" height="26" as="geometry">
            <mxRectangle x="270" y="370" width="160" height="70" as="alternateBounds" />
          </mxGeometry>
        </mxCell>
        <mxCell id="sU_c6Er136trvMsLBxcg-7" value="" style="line;html=1;strokeWidth=1;align=left;verticalAlign=middle;spacingTop=-1;spacingLeft=3;spacingRight=3;rotatable=0;labelPosition=right;points=[];portConstraint=eastwest;" parent="sU_c6Er136trvMsLBxcg-6" vertex="1">
          <mxGeometry y="26" width="160" height="8" as="geometry" />
        </mxCell>
        <mxCell id="sU_c6Er136trvMsLBxcg-22" style="edgeStyle=orthogonalEdgeStyle;rounded=0;orthogonalLoop=1;jettySize=auto;html=1;exitX=0;exitY=0.5;exitDx=0;exitDy=0;entryX=0.5;entryY=0;entryDx=0;entryDy=0;endArrow=none;endFill=0;" parent="mLLBI0nYe4yU47RO7_1Q-6" source="sU_c6Er136trvMsLBxcg-0" target="sU_c6Er136trvMsLBxcg-6" edge="1">
          <mxGeometry relative="1" as="geometry" />
        </mxCell>
        <mxCell id="sU_c6Er136trvMsLBxcg-9" value="" style="resizable=0;align=right;verticalAlign=bottom;labelBackgroundColor=none;fontSize=12;" parent="mLLBI0nYe4yU47RO7_1Q-6" connectable="0" vertex="1">
          <mxGeometry x="285" y="50.00333333333339" as="geometry">
            <mxPoint x="216" y="62" as="offset" />
          </mxGeometry>
        </mxCell>
        <mxCell id="sU_c6Er136trvMsLBxcg-10" value="1" style="text;html=1;align=center;verticalAlign=middle;resizable=0;points=[];autosize=1;strokeColor=none;fillColor=none;" parent="mLLBI0nYe4yU47RO7_1Q-6" vertex="1">
          <mxGeometry x="385" y="26" width="20" height="20" as="geometry" />
        </mxCell>
        <mxCell id="sU_c6Er136trvMsLBxcg-11" value="1..*" style="text;html=1;align=center;verticalAlign=middle;resizable=0;points=[];autosize=1;strokeColor=none;fillColor=none;" parent="mLLBI0nYe4yU47RO7_1Q-6" vertex="1">
          <mxGeometry x="385" y="80" width="30" height="20" as="geometry" />
        </mxCell>
        <mxCell id="sU_c6Er136trvMsLBxcg-16" style="edgeStyle=orthogonalEdgeStyle;rounded=0;orthogonalLoop=1;jettySize=auto;html=1;exitX=1;exitY=0.5;exitDx=0;exitDy=0;entryX=0;entryY=0.5;entryDx=0;entryDy=0;endArrow=none;endFill=0;" parent="mLLBI0nYe4yU47RO7_1Q-6" source="sU_c6Er136trvMsLBxcg-12" target="sU_c6Er136trvMsLBxcg-3" edge="1">
          <mxGeometry relative="1" as="geometry" />
        </mxCell>
        <mxCell id="sU_c6Er136trvMsLBxcg-12" value="INVENTORY" style="swimlane;fontStyle=0;align=center;verticalAlign=top;childLayout=stackLayout;horizontal=1;startSize=26;horizontalStack=0;resizeParent=1;resizeLast=0;collapsible=1;marginBottom=0;rounded=0;shadow=0;strokeWidth=1;" parent="mLLBI0nYe4yU47RO7_1Q-6" vertex="1" collapsed="1">
          <mxGeometry x="300" y="300" width="170" height="26" as="geometry">
            <mxRectangle x="470" y="370" width="160" height="70" as="alternateBounds" />
          </mxGeometry>
        </mxCell>
        <mxCell id="sU_c6Er136trvMsLBxcg-13" value="" style="line;html=1;strokeWidth=1;align=left;verticalAlign=middle;spacingTop=-1;spacingLeft=3;spacingRight=3;rotatable=0;labelPosition=right;points=[];portConstraint=eastwest;" parent="sU_c6Er136trvMsLBxcg-12" vertex="1">
          <mxGeometry y="26" width="160" height="8" as="geometry" />
        </mxCell>
        <mxCell id="sU_c6Er136trvMsLBxcg-15" style="edgeStyle=orthogonalEdgeStyle;rounded=0;orthogonalLoop=1;jettySize=auto;html=1;exitX=1;exitY=0.5;exitDx=0;exitDy=0;entryX=0;entryY=0.5;entryDx=0;entryDy=0;endArrow=none;endFill=0;" parent="mLLBI0nYe4yU47RO7_1Q-6" source="sU_c6Er136trvMsLBxcg-6" target="sU_c6Er136trvMsLBxcg-12" edge="1">
          <mxGeometry relative="1" as="geometry" />
        </mxCell>
        <mxCell id="sU_c6Er136trvMsLBxcg-17" value="0..1" style="text;html=1;align=center;verticalAlign=middle;resizable=0;points=[];autosize=1;strokeColor=none;fillColor=none;" parent="mLLBI0nYe4yU47RO7_1Q-6" vertex="1">
          <mxGeometry x="465" y="290" width="40" height="20" as="geometry" />
        </mxCell>
        <mxCell id="sU_c6Er136trvMsLBxcg-18" value="0..5" style="text;html=1;align=center;verticalAlign=middle;resizable=0;points=[];autosize=1;strokeColor=none;fillColor=none;" parent="mLLBI0nYe4yU47RO7_1Q-6" vertex="1">
          <mxGeometry x="525" y="290" width="40" height="20" as="geometry" />
        </mxCell>
        <mxCell id="sU_c6Er136trvMsLBxcg-19" value="1" style="text;html=1;align=center;verticalAlign=middle;resizable=0;points=[];autosize=1;strokeColor=none;fillColor=none;" parent="mLLBI0nYe4yU47RO7_1Q-6" vertex="1">
          <mxGeometry x="200" y="290" width="20" height="20" as="geometry" />
        </mxCell>
        <mxCell id="sU_c6Er136trvMsLBxcg-20" value="1" style="text;html=1;align=center;verticalAlign=middle;resizable=0;points=[];autosize=1;strokeColor=none;fillColor=none;" parent="mLLBI0nYe4yU47RO7_1Q-6" vertex="1">
          <mxGeometry x="270" y="290" width="20" height="20" as="geometry" />
        </mxCell>
        <mxCell id="sU_c6Er136trvMsLBxcg-23" value="1" style="text;html=1;align=center;verticalAlign=middle;resizable=0;points=[];autosize=1;strokeColor=none;fillColor=none;" parent="mLLBI0nYe4yU47RO7_1Q-6" vertex="1">
          <mxGeometry x="257.5" y="136" width="20" height="20" as="geometry" />
        </mxCell>
        <mxCell id="sU_c6Er136trvMsLBxcg-24" value="*" style="text;html=1;align=center;verticalAlign=middle;resizable=0;points=[];autosize=1;strokeColor=none;fillColor=none;" parent="mLLBI0nYe4yU47RO7_1Q-6" vertex="1">
          <mxGeometry x="120" y="280" width="20" height="20" as="geometry" />
        </mxCell>
        <mxCell id="sU_c6Er136trvMsLBxcg-25" value="1" style="text;html=1;align=center;verticalAlign=middle;resizable=0;points=[];autosize=1;strokeColor=none;fillColor=none;" parent="mLLBI0nYe4yU47RO7_1Q-6" vertex="1">
          <mxGeometry x="470" y="90" width="20" height="20" as="geometry" />
        </mxCell>
        <mxCell id="sU_c6Er136trvMsLBxcg-26" value="*" style="text;html=1;align=center;verticalAlign=middle;resizable=0;points=[];autosize=1;strokeColor=none;fillColor=none;" parent="mLLBI0nYe4yU47RO7_1Q-6" vertex="1">
          <mxGeometry x="657" y="280" width="20" height="20" as="geometry" />
        </mxCell>
        <mxCell id="sU_c6Er136trvMsLBxcg-27" value="SPECIAL ROOM" style="swimlane;fontStyle=0;align=center;verticalAlign=top;childLayout=stackLayout;horizontal=1;startSize=26;horizontalStack=0;resizeParent=1;resizeLast=0;collapsible=1;marginBottom=0;rounded=0;shadow=0;strokeWidth=1;" parent="mLLBI0nYe4yU47RO7_1Q-6" vertex="1" collapsed="1">
          <mxGeometry x="305" y="190" width="160" height="26" as="geometry">
            <mxRectangle x="730" y="73" width="200" height="100" as="alternateBounds" />
          </mxGeometry>
        </mxCell>
        <mxCell id="sU_c6Er136trvMsLBxcg-28" value="" style="line;html=1;strokeWidth=1;align=left;verticalAlign=middle;spacingTop=-1;spacingLeft=3;spacingRight=3;rotatable=0;labelPosition=right;points=[];portConstraint=eastwest;" parent="sU_c6Er136trvMsLBxcg-27" vertex="1">
          <mxGeometry y="26" width="200" height="64" as="geometry" />
        </mxCell>
        <mxCell id="sU_c6Er136trvMsLBxcg-32" style="edgeStyle=orthogonalEdgeStyle;rounded=0;orthogonalLoop=1;jettySize=auto;html=1;entryX=0.5;entryY=0;entryDx=0;entryDy=0;endArrow=none;endFill=0;startArrow=block;startFill=0;exitX=0.5;exitY=1;exitDx=0;exitDy=0;" parent="mLLBI0nYe4yU47RO7_1Q-6" source="sU_c6Er136trvMsLBxcg-0" target="sU_c6Er136trvMsLBxcg-27" edge="1">
          <mxGeometry relative="1" as="geometry">
            <mxPoint x="395" y="140" as="sourcePoint" />
          </mxGeometry>
        </mxCell>
        <mxCell id="GGUUufYg7tE3_45hZKId-9" value="" style="endArrow=none;html=1;rounded=0;entryX=0.279;entryY=0.992;entryDx=0;entryDy=0;exitX=0.25;exitY=0;exitDx=0;exitDy=0;entryPerimeter=0;" parent="mLLBI0nYe4yU47RO7_1Q-6" target="zkfFHV4jXpPFQw0GAbJ--0" edge="1">
          <mxGeometry width="50" height="50" relative="1" as="geometry">
            <mxPoint x="50.000000000000114" y="300" as="sourcePoint" />
            <mxPoint x="52.499999999999886" y="26" as="targetPoint" />
          </mxGeometry>
        </mxCell>
        <mxCell id="GGUUufYg7tE3_45hZKId-10" value="1" style="edgeLabel;html=1;align=center;verticalAlign=middle;resizable=0;points=[];" parent="GGUUufYg7tE3_45hZKId-9" vertex="1" connectable="0">
          <mxGeometry x="0.883" y="3" relative="1" as="geometry">
            <mxPoint x="-9" as="offset" />
          </mxGeometry>
        </mxCell>
        <mxCell id="GGUUufYg7tE3_45hZKId-11" value="*" style="edgeLabel;html=1;align=center;verticalAlign=middle;resizable=0;points=[];" parent="GGUUufYg7tE3_45hZKId-9" vertex="1" connectable="0">
          <mxGeometry x="-0.9052" y="2" relative="1" as="geometry">
            <mxPoint x="-8" as="offset" />
          </mxGeometry>
        </mxCell>
        <mxCell id="mLLBI0nYe4yU47RO7_1Q-7" value="" style="group" vertex="1" connectable="0" parent="WIyWlLk6GJQsqaUBKTNV-1">
          <mxGeometry x="110" y="620" width="400" height="360" as="geometry" />
        </mxCell>
        <mxCell id="1VWSUXiwOZT1shFSJKdf-8" value="MUD" style="rounded=0;whiteSpace=wrap;html=1;align=left;verticalAlign=top;" parent="mLLBI0nYe4yU47RO7_1Q-7" vertex="1">
          <mxGeometry x="120" width="280" height="360" as="geometry" />
        </mxCell>
        <mxCell id="1VWSUXiwOZT1shFSJKdf-9" style="edgeStyle=none;rounded=0;orthogonalLoop=1;jettySize=auto;html=1;entryX=0;entryY=0.5;entryDx=0;entryDy=0;startArrow=none;startFill=0;endArrow=none;endFill=0;" parent="mLLBI0nYe4yU47RO7_1Q-7" target="1VWSUXiwOZT1shFSJKdf-20" edge="1">
          <mxGeometry relative="1" as="geometry">
            <mxPoint x="30" y="165" as="sourcePoint" />
          </mxGeometry>
        </mxCell>
        <mxCell id="1VWSUXiwOZT1shFSJKdf-10" style="edgeStyle=none;rounded=0;orthogonalLoop=1;jettySize=auto;html=1;entryX=0;entryY=0.5;entryDx=0;entryDy=0;startArrow=none;startFill=0;endArrow=none;endFill=0;" parent="mLLBI0nYe4yU47RO7_1Q-7" target="1VWSUXiwOZT1shFSJKdf-17" edge="1">
          <mxGeometry relative="1" as="geometry">
            <mxPoint x="30" y="165" as="sourcePoint" />
          </mxGeometry>
        </mxCell>
        <mxCell id="1VWSUXiwOZT1shFSJKdf-12" style="edgeStyle=none;rounded=0;orthogonalLoop=1;jettySize=auto;html=1;entryX=0;entryY=0.5;entryDx=0;entryDy=0;startArrow=none;startFill=0;endArrow=none;endFill=0;" parent="mLLBI0nYe4yU47RO7_1Q-7" target="1VWSUXiwOZT1shFSJKdf-21" edge="1">
          <mxGeometry relative="1" as="geometry">
            <mxPoint x="30" y="165" as="sourcePoint" />
          </mxGeometry>
        </mxCell>
        <mxCell id="1VWSUXiwOZT1shFSJKdf-13" style="edgeStyle=none;rounded=0;orthogonalLoop=1;jettySize=auto;html=1;entryX=0;entryY=0.5;entryDx=0;entryDy=0;startArrow=none;startFill=0;endArrow=none;endFill=0;" parent="mLLBI0nYe4yU47RO7_1Q-7" target="1VWSUXiwOZT1shFSJKdf-22" edge="1">
          <mxGeometry relative="1" as="geometry">
            <mxPoint x="30" y="165" as="sourcePoint" />
          </mxGeometry>
        </mxCell>
        <mxCell id="1VWSUXiwOZT1shFSJKdf-14" style="edgeStyle=none;rounded=0;orthogonalLoop=1;jettySize=auto;html=1;entryX=0;entryY=0.5;entryDx=0;entryDy=0;startArrow=none;startFill=0;endArrow=none;endFill=0;" parent="mLLBI0nYe4yU47RO7_1Q-7" target="1VWSUXiwOZT1shFSJKdf-23" edge="1">
          <mxGeometry relative="1" as="geometry">
            <mxPoint x="30" y="165" as="sourcePoint" />
          </mxGeometry>
        </mxCell>
        <mxCell id="1VWSUXiwOZT1shFSJKdf-15" value="Actor" style="shape=umlActor;verticalLabelPosition=bottom;verticalAlign=top;html=1;outlineConnect=0;" parent="mLLBI0nYe4yU47RO7_1Q-7" vertex="1">
          <mxGeometry y="135" width="30" height="60" as="geometry" />
        </mxCell>
        <mxCell id="1VWSUXiwOZT1shFSJKdf-16" value="Join Game" style="ellipse;whiteSpace=wrap;html=1;" parent="mLLBI0nYe4yU47RO7_1Q-7" vertex="1">
          <mxGeometry x="190" y="30" width="130" height="30" as="geometry" />
        </mxCell>
        <mxCell id="1VWSUXiwOZT1shFSJKdf-17" value="Take Object" style="ellipse;whiteSpace=wrap;html=1;" parent="mLLBI0nYe4yU47RO7_1Q-7" vertex="1">
          <mxGeometry x="190" y="110" width="130" height="30" as="geometry" />
        </mxCell>
        <mxCell id="1VWSUXiwOZT1shFSJKdf-18" value="Lay Down Object" style="ellipse;whiteSpace=wrap;html=1;" parent="mLLBI0nYe4yU47RO7_1Q-7" vertex="1">
          <mxGeometry x="190" y="150" width="130" height="30" as="geometry" />
        </mxCell>
        <mxCell id="1VWSUXiwOZT1shFSJKdf-11" style="edgeStyle=none;rounded=0;orthogonalLoop=1;jettySize=auto;html=1;entryX=0;entryY=0.5;entryDx=0;entryDy=0;startArrow=none;startFill=0;endArrow=none;endFill=0;" parent="mLLBI0nYe4yU47RO7_1Q-7" source="1VWSUXiwOZT1shFSJKdf-15" target="1VWSUXiwOZT1shFSJKdf-18" edge="1">
          <mxGeometry relative="1" as="geometry" />
        </mxCell>
        <mxCell id="1VWSUXiwOZT1shFSJKdf-19" value="" style="rounded=0;orthogonalLoop=1;jettySize=auto;html=1;startArrow=none;startFill=0;endArrow=none;endFill=0;entryX=0;entryY=0.5;entryDx=0;entryDy=0;" parent="mLLBI0nYe4yU47RO7_1Q-7" target="1VWSUXiwOZT1shFSJKdf-16" edge="1">
          <mxGeometry relative="1" as="geometry">
            <mxPoint x="30" y="165" as="sourcePoint" />
          </mxGeometry>
        </mxCell>
        <mxCell id="1VWSUXiwOZT1shFSJKdf-20" value="Travel Room" style="ellipse;whiteSpace=wrap;html=1;" parent="mLLBI0nYe4yU47RO7_1Q-7" vertex="1">
          <mxGeometry x="190" y="70" width="130" height="30" as="geometry" />
        </mxCell>
        <mxCell id="1VWSUXiwOZT1shFSJKdf-21" value="Trade with player" style="ellipse;whiteSpace=wrap;html=1;" parent="mLLBI0nYe4yU47RO7_1Q-7" vertex="1">
          <mxGeometry x="190" y="190" width="130" height="30" as="geometry" />
        </mxCell>
        <mxCell id="1VWSUXiwOZT1shFSJKdf-22" value="Check Inventory" style="ellipse;whiteSpace=wrap;html=1;" parent="mLLBI0nYe4yU47RO7_1Q-7" vertex="1">
          <mxGeometry x="190" y="230" width="130" height="30" as="geometry" />
        </mxCell>
        <mxCell id="1VWSUXiwOZT1shFSJKdf-23" value="Talk with players" style="ellipse;whiteSpace=wrap;html=1;" parent="mLLBI0nYe4yU47RO7_1Q-7" vertex="1">
          <mxGeometry x="190" y="270" width="130" height="30" as="geometry" />
        </mxCell>
        <mxCell id="1VWSUXiwOZT1shFSJKdf-24" value="Exit Game" style="ellipse;whiteSpace=wrap;html=1;opacity=30;" parent="mLLBI0nYe4yU47RO7_1Q-7" vertex="1">
          <mxGeometry x="190" y="310" width="130" height="30" as="geometry" />
        </mxCell>
        <mxCell id="mLLBI0nYe4yU47RO7_1Q-10" value="" style="group" vertex="1" connectable="0" parent="WIyWlLk6GJQsqaUBKTNV-1">
          <mxGeometry x="79.99553390593292" y="1700" width="972.6644660940672" height="569.9955339059329" as="geometry" />
        </mxCell>
        <mxCell id="cA6XABB9ZMt0WS9synM3-134" value="" style="rounded=0;orthogonalLoop=1;jettySize=auto;html=1;endArrow=none;endFill=0;sketch=0;exitX=1;exitY=1;exitDx=0;exitDy=0;startArrow=none;" parent="mLLBI0nYe4yU47RO7_1Q-10" edge="1">
          <mxGeometry x="-0.0949" relative="1" as="geometry">
            <mxPoint y="569.9955339059329" as="sourcePoint" />
            <mxPoint y="569.9955339059329" as="targetPoint" />
            <Array as="points" />
            <mxPoint x="1" as="offset" />
          </mxGeometry>
        </mxCell>
        <mxCell id="BA5nA2Hfeq59c8QXaOiR-4" value="Player" style="swimlane;fontStyle=1;align=center;verticalAlign=top;childLayout=stackLayout;horizontal=1;startSize=26;horizontalStack=0;resizeParent=1;resizeParentMax=0;resizeLast=0;collapsible=1;marginBottom=0;" parent="mLLBI0nYe4yU47RO7_1Q-10" vertex="1">
          <mxGeometry x="490.4644660940671" y="180" width="188" height="118" as="geometry" />
        </mxCell>
        <mxCell id="BA5nA2Hfeq59c8QXaOiR-5" value="id: UUID" style="text;strokeColor=none;fillColor=none;align=left;verticalAlign=top;spacingLeft=4;spacingRight=4;overflow=hidden;rotatable=0;points=[[0,0.5],[1,0.5]];portConstraint=eastwest;" parent="BA5nA2Hfeq59c8QXaOiR-4" vertex="1">
          <mxGeometry y="26" width="188" height="24" as="geometry" />
        </mxCell>
        <mxCell id="BA5nA2Hfeq59c8QXaOiR-6" value="" style="line;strokeWidth=1;fillColor=none;align=left;verticalAlign=middle;spacingTop=-1;spacingLeft=3;spacingRight=3;rotatable=0;labelPosition=right;points=[];portConstraint=eastwest;" parent="BA5nA2Hfeq59c8QXaOiR-4" vertex="1">
          <mxGeometry y="50" width="188" height="8" as="geometry" />
        </mxCell>
        <mxCell id="BA5nA2Hfeq59c8QXaOiR-7" value="listRoomObjects(): ObjectInfo[]&#xa;takeObject(objectId): ObjectInfo&#xa;layDownObject(objectId)&#xa;&#xa;" style="text;strokeColor=none;fillColor=none;align=left;verticalAlign=top;spacingLeft=4;spacingRight=4;overflow=hidden;rotatable=0;points=[[0,0.5],[1,0.5]];portConstraint=eastwest;" parent="BA5nA2Hfeq59c8QXaOiR-4" vertex="1">
          <mxGeometry y="58" width="188" height="60" as="geometry" />
        </mxCell>
        <mxCell id="BA5nA2Hfeq59c8QXaOiR-9" value="Room" style="swimlane;fontStyle=1;align=center;verticalAlign=top;childLayout=stackLayout;horizontal=1;startSize=26;horizontalStack=0;resizeParent=1;resizeParentMax=0;resizeLast=0;collapsible=1;marginBottom=0;" parent="mLLBI0nYe4yU47RO7_1Q-10" vertex="1">
          <mxGeometry x="741.4644660940671" y="252.5" width="183" height="110" as="geometry" />
        </mxCell>
        <mxCell id="BA5nA2Hfeq59c8QXaOiR-10" value="id: UUID" style="text;strokeColor=none;fillColor=none;align=left;verticalAlign=top;spacingLeft=4;spacingRight=4;overflow=hidden;rotatable=0;points=[[0,0.5],[1,0.5]];portConstraint=eastwest;" parent="BA5nA2Hfeq59c8QXaOiR-9" vertex="1">
          <mxGeometry y="26" width="183" height="24" as="geometry" />
        </mxCell>
        <mxCell id="BA5nA2Hfeq59c8QXaOiR-11" value="" style="line;strokeWidth=1;fillColor=none;align=left;verticalAlign=middle;spacingTop=-1;spacingLeft=3;spacingRight=3;rotatable=0;labelPosition=right;points=[];portConstraint=eastwest;" parent="BA5nA2Hfeq59c8QXaOiR-9" vertex="1">
          <mxGeometry y="50" width="183" height="8" as="geometry" />
        </mxCell>
        <mxCell id="BA5nA2Hfeq59c8QXaOiR-12" value="listObjects(): ObjectInfo[]&#xa;removeObject(objectId): Object&#xa;addObject(Object)&#xa;" style="text;strokeColor=none;fillColor=none;align=left;verticalAlign=top;spacingLeft=4;spacingRight=4;overflow=hidden;rotatable=0;points=[[0,0.5],[1,0.5]];portConstraint=eastwest;" parent="BA5nA2Hfeq59c8QXaOiR-9" vertex="1">
          <mxGeometry y="58" width="183" height="52" as="geometry" />
        </mxCell>
        <mxCell id="BA5nA2Hfeq59c8QXaOiR-13" value="Inventory" style="swimlane;fontStyle=1;align=center;verticalAlign=top;childLayout=stackLayout;horizontal=1;startSize=26;horizontalStack=0;resizeParent=1;resizeParentMax=0;resizeLast=0;collapsible=1;marginBottom=0;" parent="mLLBI0nYe4yU47RO7_1Q-10" vertex="1">
          <mxGeometry x="469.9644660940671" y="404" width="220" height="78" as="geometry" />
        </mxCell>
        <mxCell id="BA5nA2Hfeq59c8QXaOiR-16" value="addObject(Object)&#xa;removeObject(objectId): Object&#xa;isFull(): bool" style="text;strokeColor=none;fillColor=none;align=left;verticalAlign=top;spacingLeft=4;spacingRight=4;overflow=hidden;rotatable=0;points=[[0,0.5],[1,0.5]];portConstraint=eastwest;" parent="BA5nA2Hfeq59c8QXaOiR-13" vertex="1">
          <mxGeometry y="26" width="220" height="52" as="geometry" />
        </mxCell>
        <mxCell id="BA5nA2Hfeq59c8QXaOiR-17" value="Object" style="swimlane;fontStyle=1;align=center;verticalAlign=top;childLayout=stackLayout;horizontal=1;startSize=26;horizontalStack=0;resizeParent=1;resizeParentMax=0;resizeLast=0;collapsible=1;marginBottom=0;" parent="mLLBI0nYe4yU47RO7_1Q-10" vertex="1">
          <mxGeometry x="761.4644660940671" y="404" width="125" height="112" as="geometry" />
        </mxCell>
        <mxCell id="BA5nA2Hfeq59c8QXaOiR-18" value="id: UUID" style="text;strokeColor=none;fillColor=none;align=left;verticalAlign=top;spacingLeft=4;spacingRight=4;overflow=hidden;rotatable=0;points=[[0,0.5],[1,0.5]];portConstraint=eastwest;" parent="BA5nA2Hfeq59c8QXaOiR-17" vertex="1">
          <mxGeometry y="26" width="125" height="26" as="geometry" />
        </mxCell>
        <mxCell id="BA5nA2Hfeq59c8QXaOiR-19" value="" style="line;strokeWidth=1;fillColor=none;align=left;verticalAlign=middle;spacingTop=-1;spacingLeft=3;spacingRight=3;rotatable=0;labelPosition=right;points=[];portConstraint=eastwest;" parent="BA5nA2Hfeq59c8QXaOiR-17" vertex="1">
          <mxGeometry y="52" width="125" height="8" as="geometry" />
        </mxCell>
        <mxCell id="BA5nA2Hfeq59c8QXaOiR-20" value="getInfo(): ObjectInfo" style="text;strokeColor=none;fillColor=none;align=left;verticalAlign=top;spacingLeft=4;spacingRight=4;overflow=hidden;rotatable=0;points=[[0,0.5],[1,0.5]];portConstraint=eastwest;" parent="BA5nA2Hfeq59c8QXaOiR-17" vertex="1">
          <mxGeometry y="60" width="125" height="52" as="geometry" />
        </mxCell>
        <mxCell id="BA5nA2Hfeq59c8QXaOiR-21" value="" style="endArrow=none;html=1;rounded=0;exitX=0.996;exitY=0.284;exitDx=0;exitDy=0;exitPerimeter=0;entryX=0;entryY=0.5;entryDx=0;entryDy=0;" parent="mLLBI0nYe4yU47RO7_1Q-10" source="BA5nA2Hfeq59c8QXaOiR-7" edge="1" target="BA5nA2Hfeq59c8QXaOiR-9">
          <mxGeometry width="50" height="50" relative="1" as="geometry">
            <mxPoint x="818.4644660940671" y="309" as="sourcePoint" />
            <mxPoint x="748.4644660940671" y="255" as="targetPoint" />
          </mxGeometry>
        </mxCell>
        <mxCell id="mLLBI0nYe4yU47RO7_1Q-8" value="*" style="edgeLabel;html=1;align=center;verticalAlign=middle;resizable=0;points=[];" vertex="1" connectable="0" parent="BA5nA2Hfeq59c8QXaOiR-21">
          <mxGeometry x="-0.3254" relative="1" as="geometry">
            <mxPoint x="-8" y="10" as="offset" />
          </mxGeometry>
        </mxCell>
        <mxCell id="mLLBI0nYe4yU47RO7_1Q-9" value="0..1" style="edgeLabel;html=1;align=center;verticalAlign=middle;resizable=0;points=[];" vertex="1" connectable="0" parent="BA5nA2Hfeq59c8QXaOiR-21">
          <mxGeometry x="-0.0327" y="1" relative="1" as="geometry">
            <mxPoint x="14" y="26" as="offset" />
          </mxGeometry>
        </mxCell>
        <mxCell id="BA5nA2Hfeq59c8QXaOiR-22" value="" style="endArrow=none;html=1;rounded=0;exitX=1;exitY=0.5;exitDx=0;exitDy=0;entryX=-0.005;entryY=0.82;entryDx=0;entryDy=0;entryPerimeter=0;" parent="mLLBI0nYe4yU47RO7_1Q-10" source="BA5nA2Hfeq59c8QXaOiR-16" target="BA5nA2Hfeq59c8QXaOiR-18" edge="1">
          <mxGeometry width="50" height="50" relative="1" as="geometry">
            <mxPoint x="818.4644660940671" y="309" as="sourcePoint" />
            <mxPoint x="751.4644660940671" y="456.5" as="targetPoint" />
          </mxGeometry>
        </mxCell>
        <mxCell id="BA5nA2Hfeq59c8QXaOiR-37" value="*" style="edgeLabel;html=1;align=center;verticalAlign=middle;resizable=0;points=[];" parent="BA5nA2Hfeq59c8QXaOiR-22" vertex="1" connectable="0">
          <mxGeometry x="0.7991" relative="1" as="geometry">
            <mxPoint x="-1" y="-15" as="offset" />
          </mxGeometry>
        </mxCell>
        <mxCell id="BA5nA2Hfeq59c8QXaOiR-38" value="1" style="edgeLabel;html=1;align=center;verticalAlign=middle;resizable=0;points=[];" parent="BA5nA2Hfeq59c8QXaOiR-22" vertex="1" connectable="0">
          <mxGeometry x="-0.8053" relative="1" as="geometry">
            <mxPoint y="-16" as="offset" />
          </mxGeometry>
        </mxCell>
        <mxCell id="BA5nA2Hfeq59c8QXaOiR-23" value="" style="endArrow=none;html=1;rounded=0;exitX=0.5;exitY=0;exitDx=0;exitDy=0;entryX=0.491;entryY=1.023;entryDx=0;entryDy=0;entryPerimeter=0;" parent="mLLBI0nYe4yU47RO7_1Q-10" source="BA5nA2Hfeq59c8QXaOiR-13" target="BA5nA2Hfeq59c8QXaOiR-7" edge="1">
          <mxGeometry width="50" height="50" relative="1" as="geometry">
            <mxPoint x="818.4644660940671" y="349" as="sourcePoint" />
            <mxPoint x="868.4644660940671" y="299" as="targetPoint" />
          </mxGeometry>
        </mxCell>
        <mxCell id="BA5nA2Hfeq59c8QXaOiR-39" value="1" style="edgeLabel;html=1;align=center;verticalAlign=middle;resizable=0;points=[];" parent="BA5nA2Hfeq59c8QXaOiR-23" vertex="1" connectable="0">
          <mxGeometry x="-0.7573" relative="1" as="geometry">
            <mxPoint x="13" as="offset" />
          </mxGeometry>
        </mxCell>
        <mxCell id="BA5nA2Hfeq59c8QXaOiR-40" value="1" style="edgeLabel;html=1;align=center;verticalAlign=middle;resizable=0;points=[];" parent="BA5nA2Hfeq59c8QXaOiR-23" vertex="1" connectable="0">
          <mxGeometry x="0.7547" relative="1" as="geometry">
            <mxPoint x="9" as="offset" />
          </mxGeometry>
        </mxCell>
        <mxCell id="BA5nA2Hfeq59c8QXaOiR-24" value="" style="endArrow=none;html=1;rounded=0;entryX=0.536;entryY=1.064;entryDx=0;entryDy=0;entryPerimeter=0;exitX=0.5;exitY=0;exitDx=0;exitDy=0;" parent="mLLBI0nYe4yU47RO7_1Q-10" source="BA5nA2Hfeq59c8QXaOiR-17" target="BA5nA2Hfeq59c8QXaOiR-12" edge="1">
          <mxGeometry width="50" height="50" relative="1" as="geometry">
            <mxPoint x="970.4644660940671" y="389" as="sourcePoint" />
            <mxPoint x="868.4644660940671" y="299" as="targetPoint" />
          </mxGeometry>
        </mxCell>
        <mxCell id="BA5nA2Hfeq59c8QXaOiR-35" value="*" style="edgeLabel;html=1;align=center;verticalAlign=middle;resizable=0;points=[];" parent="BA5nA2Hfeq59c8QXaOiR-24" vertex="1" connectable="0">
          <mxGeometry x="-0.4814" y="-1" relative="1" as="geometry">
            <mxPoint x="8" y="5" as="offset" />
          </mxGeometry>
        </mxCell>
        <mxCell id="BA5nA2Hfeq59c8QXaOiR-36" value="1" style="edgeLabel;html=1;align=center;verticalAlign=middle;resizable=0;points=[];" parent="BA5nA2Hfeq59c8QXaOiR-24" vertex="1" connectable="0">
          <mxGeometry x="0.855" y="-1" relative="1" as="geometry">
            <mxPoint x="4" as="offset" />
          </mxGeometry>
        </mxCell>
        <mxCell id="BA5nA2Hfeq59c8QXaOiR-29" value="&lt;&lt;interface&gt;&gt;&#xa;GameServerToMobileClient&#xa;" style="swimlane;fontStyle=1;align=center;verticalAlign=top;childLayout=stackLayout;horizontal=1;startSize=40;horizontalStack=0;resizeParent=1;resizeParentMax=0;resizeLast=0;collapsible=1;marginBottom=0;" parent="mLLBI0nYe4yU47RO7_1Q-10" vertex="1">
          <mxGeometry x="191.46446609406712" y="4.099999999999909" width="237" height="110" as="geometry" />
        </mxCell>
        <mxCell id="BA5nA2Hfeq59c8QXaOiR-30" value="takeObject (playerId, objectId): ObjectInfo&#xa;layDownObject (playerId, objectId)&#xa;listAvalibleObjects (playerId): ObjectInfo[]" style="text;strokeColor=none;fillColor=none;align=left;verticalAlign=top;spacingLeft=4;spacingRight=4;overflow=hidden;rotatable=0;points=[[0,0.5],[1,0.5]];portConstraint=eastwest;" parent="BA5nA2Hfeq59c8QXaOiR-29" vertex="1">
          <mxGeometry y="40" width="237" height="70" as="geometry" />
        </mxCell>
        <mxCell id="BA5nA2Hfeq59c8QXaOiR-31" value="Game" style="swimlane;fontStyle=1;align=center;verticalAlign=top;childLayout=stackLayout;horizontal=1;startSize=30;horizontalStack=0;resizeParent=1;resizeParentMax=0;resizeLast=0;collapsible=1;marginBottom=0;" parent="mLLBI0nYe4yU47RO7_1Q-10" vertex="1">
          <mxGeometry x="461.4644660940671" width="237" height="100" as="geometry" />
        </mxCell>
        <mxCell id="BA5nA2Hfeq59c8QXaOiR-32" value="takeObject (playerId, objectId): ObjectInfo&#xa;layDownObject (playerId, objectId)&#xa;listAvalibleObjects (playerId): ObjectInfo[]" style="text;strokeColor=none;fillColor=none;align=left;verticalAlign=top;spacingLeft=4;spacingRight=4;overflow=hidden;rotatable=0;points=[[0,0.5],[1,0.5]];portConstraint=eastwest;" parent="BA5nA2Hfeq59c8QXaOiR-31" vertex="1">
          <mxGeometry y="30" width="237" height="70" as="geometry" />
        </mxCell>
        <mxCell id="BA5nA2Hfeq59c8QXaOiR-33" value="" style="endArrow=block;dashed=1;html=1;dashPattern=1 3;strokeWidth=2;rounded=0;endFill=0;exitX=0.001;exitY=0.356;exitDx=0;exitDy=0;exitPerimeter=0;" parent="mLLBI0nYe4yU47RO7_1Q-10" source="BA5nA2Hfeq59c8QXaOiR-32" edge="1">
          <mxGeometry width="50" height="50" relative="1" as="geometry">
            <mxPoint x="613.4644660940671" y="-10" as="sourcePoint" />
            <mxPoint x="431.4644660940671" y="52.5" as="targetPoint" />
          </mxGeometry>
        </mxCell>
        <mxCell id="BA5nA2Hfeq59c8QXaOiR-34" value="" style="endArrow=none;html=1;rounded=0;exitX=0.509;exitY=1.009;exitDx=0;exitDy=0;exitPerimeter=0;entryX=0.5;entryY=0;entryDx=0;entryDy=0;" parent="mLLBI0nYe4yU47RO7_1Q-10" source="BA5nA2Hfeq59c8QXaOiR-32" target="BA5nA2Hfeq59c8QXaOiR-4" edge="1">
          <mxGeometry width="50" height="50" relative="1" as="geometry">
            <mxPoint x="561.4664660940671" y="110.0039999999999" as="sourcePoint" />
            <mxPoint x="632.5944660940672" y="110.35000000000014" as="targetPoint" />
          </mxGeometry>
        </mxCell>
        <mxCell id="BA5nA2Hfeq59c8QXaOiR-41" value="{context takeObject(objectId)&amp;nbsp;&lt;br&gt;&lt;div&gt;pre: Inventory -&amp;gt; objects.size() &amp;lt;= 4&lt;/div&gt;&lt;div&gt;post: Inventory -&amp;gt; objects.size() = objects@pre.size() +1&amp;nbsp;AND&lt;/div&gt;&lt;div&gt;Inventory -&amp;gt; objects includes  objects@pre AND&lt;/div&gt;Inventory -&amp;gt; objects.any(o | o.id = objectId)&lt;div&gt;}&lt;/div&gt;" style="shape=note;whiteSpace=wrap;html=1;backgroundOutline=1;darkOpacity=0.05;align=left;" parent="mLLBI0nYe4yU47RO7_1Q-10" vertex="1">
          <mxGeometry x="91.46446609406712" y="144.0999999999999" width="370" height="92.5" as="geometry" />
        </mxCell>
        <mxCell id="BA5nA2Hfeq59c8QXaOiR-42" value="" style="endArrow=none;dashed=1;html=1;rounded=0;exitX=0;exitY=0.5;exitDx=0;exitDy=0;entryX=1.001;entryY=0.913;entryDx=0;entryDy=0;entryPerimeter=0;" parent="mLLBI0nYe4yU47RO7_1Q-10" source="BA5nA2Hfeq59c8QXaOiR-7" target="BA5nA2Hfeq59c8QXaOiR-41" edge="1">
          <mxGeometry width="50" height="50" relative="1" as="geometry">
            <mxPoint x="510.4644660940671" y="328" as="sourcePoint" />
            <mxPoint x="341.4644660940676" y="370.05999999999995" as="targetPoint" />
          </mxGeometry>
        </mxCell>
        <mxCell id="BA5nA2Hfeq59c8QXaOiR-43" value="{context Lay Down Object(objectId)&lt;br&gt;&lt;div&gt;pre: Inventory -&amp;gt;&amp;nbsp;objects.size() &amp;gt; 0&lt;/div&gt;&lt;div&gt;AND Inventory -&amp;gt; objects.any(o | o.id = objectId)&lt;/div&gt;&lt;div&gt;post:&amp;nbsp;&lt;/div&gt;&lt;div&gt;Inventory -&amp;gt; objects.size() = objects@pre.size() - 1 AND&lt;/div&gt;&lt;div&gt;Inventory -&amp;gt; objects@pre includes objects AND&lt;/div&gt;Inventory -&amp;gt; not objects.any(o | o.id = objectId)&lt;div&gt;}&lt;/div&gt;" style="shape=note;whiteSpace=wrap;html=1;backgroundOutline=1;darkOpacity=0.05;align=left;" parent="mLLBI0nYe4yU47RO7_1Q-10" vertex="1">
          <mxGeometry x="111.46446609406712" y="252.5" width="338.5" height="124.5" as="geometry" />
        </mxCell>
        <mxCell id="BA5nA2Hfeq59c8QXaOiR-44" value="" style="endArrow=none;dashed=1;html=1;rounded=0;exitX=-0.01;exitY=0.849;exitDx=0;exitDy=0;entryX=1.002;entryY=0.517;entryDx=0;entryDy=0;entryPerimeter=0;exitPerimeter=0;" parent="mLLBI0nYe4yU47RO7_1Q-10" source="BA5nA2Hfeq59c8QXaOiR-7" target="BA5nA2Hfeq59c8QXaOiR-43" edge="1">
          <mxGeometry width="50" height="50" relative="1" as="geometry">
            <mxPoint x="254.96446609406712" y="90" as="sourcePoint" />
            <mxPoint x="198.6944660940676" y="164.51999999999998" as="targetPoint" />
          </mxGeometry>
        </mxCell>
        <mxCell id="BA5nA2Hfeq59c8QXaOiR-45" value="{context Inventory&lt;br&gt;inv: size(objects) &amp;lt;= 5&lt;br&gt;inv: size(objects) &amp;gt;= 0" style="shape=note;whiteSpace=wrap;html=1;backgroundOutline=1;darkOpacity=0.05;align=left;" parent="mLLBI0nYe4yU47RO7_1Q-10" vertex="1">
          <mxGeometry x="231.46446609406712" y="413" width="180" height="60" as="geometry" />
        </mxCell>
        <mxCell id="BA5nA2Hfeq59c8QXaOiR-46" value="" style="endArrow=none;dashed=1;html=1;rounded=0;entryX=0;entryY=0;entryDx=180;entryDy=30;entryPerimeter=0;exitX=0;exitY=0.25;exitDx=0;exitDy=0;" parent="mLLBI0nYe4yU47RO7_1Q-10" source="BA5nA2Hfeq59c8QXaOiR-13" target="BA5nA2Hfeq59c8QXaOiR-45" edge="1">
          <mxGeometry width="50" height="50" relative="1" as="geometry">
            <mxPoint x="431.4644660940671" y="570" as="sourcePoint" />
            <mxPoint x="-238.53553390593288" y="504.03999999999996" as="targetPoint" />
          </mxGeometry>
        </mxCell>
        <mxCell id="mLLBI0nYe4yU47RO7_1Q-0" value="{context removeObject(objectId)&lt;br&gt;pre: objects.any(o | o.id == objectId)&lt;br&gt;post: not objects.any(o | o.id == objectId)&amp;nbsp; AND &lt;br&gt;objects@pre includes objects AND&lt;br&gt;objects.size() = objects@pre.size() -1&lt;br&gt;}" style="shape=note;whiteSpace=wrap;html=1;backgroundOutline=1;darkOpacity=0.05;align=left;" vertex="1" parent="mLLBI0nYe4yU47RO7_1Q-10">
          <mxGeometry x="711.4644660940671" y="100" width="261.2" height="124.5" as="geometry" />
        </mxCell>
        <mxCell id="mLLBI0nYe4yU47RO7_1Q-1" value="" style="endArrow=none;dashed=1;html=1;rounded=0;entryX=0.454;entryY=1.04;entryDx=0;entryDy=0;entryPerimeter=0;" edge="1" parent="mLLBI0nYe4yU47RO7_1Q-10" source="BA5nA2Hfeq59c8QXaOiR-9" target="mLLBI0nYe4yU47RO7_1Q-0">
          <mxGeometry width="50" height="50" relative="1" as="geometry">
            <mxPoint x="500.4644660940671" y="278" as="sourcePoint" />
            <mxPoint x="401.834466094067" y="234.4525000000001" as="targetPoint" />
          </mxGeometry>
        </mxCell>
        <mxCell id="mLLBI0nYe4yU47RO7_1Q-15" value="" style="group" vertex="1" connectable="0" parent="WIyWlLk6GJQsqaUBKTNV-1">
          <mxGeometry x="650" y="2535" width="440" height="252.14999999999998" as="geometry" />
        </mxCell>
        <mxCell id="BA5nA2Hfeq59c8QXaOiR-47" value="" style="ellipse;html=1;shape=startState;fillColor=#000000;strokeColor=#ff0000;" parent="mLLBI0nYe4yU47RO7_1Q-15" vertex="1">
          <mxGeometry x="80" y="112.5" width="30" height="30" as="geometry" />
        </mxCell>
        <mxCell id="BA5nA2Hfeq59c8QXaOiR-48" value="" style="edgeStyle=orthogonalEdgeStyle;html=1;verticalAlign=bottom;endArrow=open;endSize=8;strokeColor=#ff0000;rounded=0;exitX=1;exitY=0.5;exitDx=0;exitDy=0;entryX=0;entryY=0.5;entryDx=0;entryDy=0;" parent="mLLBI0nYe4yU47RO7_1Q-15" source="BA5nA2Hfeq59c8QXaOiR-47" edge="1">
          <mxGeometry relative="1" as="geometry">
            <mxPoint x="130" y="127.5" as="targetPoint" />
            <mxPoint x="400" y="162.5" as="sourcePoint" />
          </mxGeometry>
        </mxCell>
        <mxCell id="BA5nA2Hfeq59c8QXaOiR-49" value="Idle" style="rounded=1;whiteSpace=wrap;html=1;" parent="mLLBI0nYe4yU47RO7_1Q-15" vertex="1">
          <mxGeometry x="132" y="112.5" width="80" height="30" as="geometry" />
        </mxCell>
        <mxCell id="BA5nA2Hfeq59c8QXaOiR-50" value="List" style="rounded=1;whiteSpace=wrap;html=1;" parent="mLLBI0nYe4yU47RO7_1Q-15" vertex="1">
          <mxGeometry x="180.80000000000018" y="27.5" width="80" height="30" as="geometry" />
        </mxCell>
        <mxCell id="BA5nA2Hfeq59c8QXaOiR-51" value="" style="endArrow=open;endFill=1;endSize=12;html=1;rounded=0;entryX=0;entryY=0.75;entryDx=0;entryDy=0;exitX=0.5;exitY=0;exitDx=0;exitDy=0;" parent="mLLBI0nYe4yU47RO7_1Q-15" source="BA5nA2Hfeq59c8QXaOiR-49" target="BA5nA2Hfeq59c8QXaOiR-50" edge="1">
          <mxGeometry width="160" relative="1" as="geometry">
            <mxPoint x="172" y="74" as="sourcePoint" />
            <mxPoint x="412" y="69" as="targetPoint" />
          </mxGeometry>
        </mxCell>
        <mxCell id="BA5nA2Hfeq59c8QXaOiR-53" value="listAvalibleObjects()" style="edgeLabel;html=1;align=center;verticalAlign=middle;resizable=0;points=[];" parent="BA5nA2Hfeq59c8QXaOiR-51" vertex="1" connectable="0">
          <mxGeometry x="0.3245" relative="1" as="geometry">
            <mxPoint x="-50" y="1" as="offset" />
          </mxGeometry>
        </mxCell>
        <mxCell id="BA5nA2Hfeq59c8QXaOiR-52" value="" style="endArrow=open;endFill=1;endSize=12;html=1;rounded=0;exitX=0.25;exitY=1;exitDx=0;exitDy=0;entryX=0.75;entryY=0;entryDx=0;entryDy=0;" parent="mLLBI0nYe4yU47RO7_1Q-15" source="BA5nA2Hfeq59c8QXaOiR-50" target="BA5nA2Hfeq59c8QXaOiR-49" edge="1">
          <mxGeometry width="160" relative="1" as="geometry">
            <mxPoint x="412" y="94" as="sourcePoint" />
            <mxPoint x="172" y="89" as="targetPoint" />
          </mxGeometry>
        </mxCell>
        <mxCell id="BA5nA2Hfeq59c8QXaOiR-54" value="currentRoom.listObjects()" style="edgeLabel;html=1;align=center;verticalAlign=middle;resizable=0;points=[];" parent="BA5nA2Hfeq59c8QXaOiR-52" vertex="1" connectable="0">
          <mxGeometry x="-0.2315" y="2" relative="1" as="geometry">
            <mxPoint x="68" y="-7" as="offset" />
          </mxGeometry>
        </mxCell>
        <mxCell id="BA5nA2Hfeq59c8QXaOiR-55" value="takeObject" style="rounded=1;whiteSpace=wrap;html=1;" parent="mLLBI0nYe4yU47RO7_1Q-15" vertex="1">
          <mxGeometry x="360" y="112.5" width="80" height="30" as="geometry" />
        </mxCell>
        <mxCell id="BA5nA2Hfeq59c8QXaOiR-56" value="" style="endArrow=open;endFill=1;endSize=12;html=1;rounded=0;entryX=0;entryY=0.25;entryDx=0;entryDy=0;exitX=1;exitY=0.25;exitDx=0;exitDy=0;" parent="mLLBI0nYe4yU47RO7_1Q-15" source="BA5nA2Hfeq59c8QXaOiR-49" target="BA5nA2Hfeq59c8QXaOiR-55" edge="1">
          <mxGeometry width="160" relative="1" as="geometry">
            <mxPoint x="262" y="227.4999999999999" as="sourcePoint" />
            <mxPoint x="502" y="184" as="targetPoint" />
          </mxGeometry>
        </mxCell>
        <mxCell id="BA5nA2Hfeq59c8QXaOiR-57" value="takeObject(objectId)" style="edgeLabel;html=1;align=center;verticalAlign=middle;resizable=0;points=[];" parent="BA5nA2Hfeq59c8QXaOiR-56" vertex="1" connectable="0">
          <mxGeometry x="0.3245" relative="1" as="geometry">
            <mxPoint x="10" y="-15" as="offset" />
          </mxGeometry>
        </mxCell>
        <mxCell id="BA5nA2Hfeq59c8QXaOiR-58" value="" style="endArrow=open;endFill=1;endSize=12;html=1;rounded=0;exitX=0;exitY=0.75;exitDx=0;exitDy=0;entryX=1;entryY=0.75;entryDx=0;entryDy=0;" parent="mLLBI0nYe4yU47RO7_1Q-15" source="BA5nA2Hfeq59c8QXaOiR-55" edge="1" target="BA5nA2Hfeq59c8QXaOiR-49">
          <mxGeometry width="160" relative="1" as="geometry">
            <mxPoint x="502" y="209" as="sourcePoint" />
            <mxPoint x="200" y="145" as="targetPoint" />
          </mxGeometry>
        </mxCell>
        <mxCell id="BA5nA2Hfeq59c8QXaOiR-59" value="&lt;div&gt;obj:=currentRoom.removeObject(objectId)&lt;/div&gt;&lt;div&gt;inventory.addObject(object)&lt;/div&gt;&lt;div&gt;return object.getInfo()&lt;br&gt;&lt;/div&gt;" style="edgeLabel;html=1;align=center;verticalAlign=middle;resizable=0;points=[];" parent="BA5nA2Hfeq59c8QXaOiR-58" vertex="1" connectable="0">
          <mxGeometry x="-0.2315" y="2" relative="1" as="geometry">
            <mxPoint x="19" y="31" as="offset" />
          </mxGeometry>
        </mxCell>
        <mxCell id="BA5nA2Hfeq59c8QXaOiR-60" value="layDownObject" style="rounded=1;whiteSpace=wrap;html=1;" parent="mLLBI0nYe4yU47RO7_1Q-15" vertex="1">
          <mxGeometry x="78.79999999999973" y="216.36" width="98.8" height="35.79" as="geometry" />
        </mxCell>
        <mxCell id="BA5nA2Hfeq59c8QXaOiR-61" value="" style="endArrow=open;endFill=1;endSize=12;html=1;rounded=0;entryX=0.75;entryY=0;entryDx=0;entryDy=0;exitX=0.5;exitY=1;exitDx=0;exitDy=0;" parent="mLLBI0nYe4yU47RO7_1Q-15" source="BA5nA2Hfeq59c8QXaOiR-49" target="BA5nA2Hfeq59c8QXaOiR-60" edge="1">
          <mxGeometry width="160" relative="1" as="geometry">
            <mxPoint x="148.80000000000018" y="175.80999999999995" as="sourcePoint" />
            <mxPoint x="213.19999999999982" y="290.7099999999999" as="targetPoint" />
          </mxGeometry>
        </mxCell>
        <mxCell id="BA5nA2Hfeq59c8QXaOiR-62" value="&lt;div&gt;obj:= inventory.removeObject(objectId)&lt;/div&gt;&lt;div&gt;currentRoom.addObject(obj)&lt;br&gt;&lt;/div&gt;" style="edgeLabel;html=1;align=center;verticalAlign=middle;resizable=0;points=[];" parent="BA5nA2Hfeq59c8QXaOiR-61" vertex="1" connectable="0">
          <mxGeometry x="0.3245" relative="1" as="geometry">
            <mxPoint x="-131" y="-9" as="offset" />
          </mxGeometry>
        </mxCell>
        <mxCell id="BA5nA2Hfeq59c8QXaOiR-63" value="" style="endArrow=open;endFill=1;endSize=12;html=1;rounded=0;exitX=0.25;exitY=0;exitDx=0;exitDy=0;entryX=0.135;entryY=0.97;entryDx=0;entryDy=0;entryPerimeter=0;" parent="mLLBI0nYe4yU47RO7_1Q-15" source="BA5nA2Hfeq59c8QXaOiR-60" target="BA5nA2Hfeq59c8QXaOiR-49" edge="1">
          <mxGeometry width="160" relative="1" as="geometry">
            <mxPoint x="213.19999999999982" y="315.7099999999999" as="sourcePoint" />
            <mxPoint x="121.59999999999945" y="175" as="targetPoint" />
          </mxGeometry>
        </mxCell>
        <mxCell id="BA5nA2Hfeq59c8QXaOiR-64" value="layDownObject(objectId)" style="edgeLabel;html=1;align=center;verticalAlign=middle;resizable=0;points=[];" parent="BA5nA2Hfeq59c8QXaOiR-63" vertex="1" connectable="0">
          <mxGeometry x="-0.2315" y="2" relative="1" as="geometry">
            <mxPoint x="111" y="23" as="offset" />
          </mxGeometry>
        </mxCell>
        <mxCell id="mLLBI0nYe4yU47RO7_1Q-16" value="" style="group" vertex="1" connectable="0" parent="WIyWlLk6GJQsqaUBKTNV-1">
          <mxGeometry x="1300" y="2564.9999999999995" width="439.5" height="262.94000000000005" as="geometry" />
        </mxCell>
        <mxCell id="BA5nA2Hfeq59c8QXaOiR-104" value="" style="ellipse;html=1;shape=startState;fillColor=#000000;strokeColor=#ff0000;" parent="mLLBI0nYe4yU47RO7_1Q-16" vertex="1">
          <mxGeometry x="78.30000000000018" y="98.75" width="30" height="30" as="geometry" />
        </mxCell>
        <mxCell id="BA5nA2Hfeq59c8QXaOiR-105" value="" style="edgeStyle=orthogonalEdgeStyle;html=1;verticalAlign=bottom;endArrow=open;endSize=8;strokeColor=#ff0000;rounded=0;exitX=1;exitY=0.5;exitDx=0;exitDy=0;entryX=0;entryY=0.5;entryDx=0;entryDy=0;" parent="mLLBI0nYe4yU47RO7_1Q-16" source="BA5nA2Hfeq59c8QXaOiR-104" edge="1">
          <mxGeometry relative="1" as="geometry">
            <mxPoint x="128.30000000000018" y="113.75" as="targetPoint" />
            <mxPoint x="398.3000000000002" y="148.75" as="sourcePoint" />
          </mxGeometry>
        </mxCell>
        <mxCell id="BA5nA2Hfeq59c8QXaOiR-106" value="Idle" style="rounded=1;whiteSpace=wrap;html=1;" parent="mLLBI0nYe4yU47RO7_1Q-16" vertex="1">
          <mxGeometry x="130.30000000000018" y="98.75" width="80" height="30" as="geometry" />
        </mxCell>
        <mxCell id="BA5nA2Hfeq59c8QXaOiR-107" value="List" style="rounded=1;whiteSpace=wrap;html=1;" parent="mLLBI0nYe4yU47RO7_1Q-16" vertex="1">
          <mxGeometry x="169.5" y="13.75" width="80" height="30" as="geometry" />
        </mxCell>
        <mxCell id="BA5nA2Hfeq59c8QXaOiR-108" value="" style="endArrow=open;endFill=1;endSize=12;html=1;rounded=0;entryX=0;entryY=0.75;entryDx=0;entryDy=0;exitX=0.5;exitY=0;exitDx=0;exitDy=0;" parent="mLLBI0nYe4yU47RO7_1Q-16" source="BA5nA2Hfeq59c8QXaOiR-106" target="BA5nA2Hfeq59c8QXaOiR-107" edge="1">
          <mxGeometry width="160" relative="1" as="geometry">
            <mxPoint x="170.30000000000018" y="60.25" as="sourcePoint" />
            <mxPoint x="410.3000000000002" y="55.25" as="targetPoint" />
          </mxGeometry>
        </mxCell>
        <mxCell id="BA5nA2Hfeq59c8QXaOiR-109" value="listObjects()" style="edgeLabel;html=1;align=center;verticalAlign=middle;resizable=0;points=[];" parent="BA5nA2Hfeq59c8QXaOiR-108" vertex="1" connectable="0">
          <mxGeometry x="0.3245" relative="1" as="geometry">
            <mxPoint x="-47" y="-11" as="offset" />
          </mxGeometry>
        </mxCell>
        <mxCell id="BA5nA2Hfeq59c8QXaOiR-110" value="" style="endArrow=open;endFill=1;endSize=12;html=1;rounded=0;exitX=0.25;exitY=1;exitDx=0;exitDy=0;entryX=0.75;entryY=0;entryDx=0;entryDy=0;" parent="mLLBI0nYe4yU47RO7_1Q-16" source="BA5nA2Hfeq59c8QXaOiR-107" target="BA5nA2Hfeq59c8QXaOiR-106" edge="1">
          <mxGeometry width="160" relative="1" as="geometry">
            <mxPoint x="410.3000000000002" y="80.25" as="sourcePoint" />
            <mxPoint x="170.30000000000018" y="75.25" as="targetPoint" />
          </mxGeometry>
        </mxCell>
        <mxCell id="BA5nA2Hfeq59c8QXaOiR-111" value="return objects.map(o | o.getInfo() )" style="edgeLabel;html=1;align=center;verticalAlign=middle;resizable=0;points=[];" parent="BA5nA2Hfeq59c8QXaOiR-110" vertex="1" connectable="0">
          <mxGeometry x="-0.2315" y="2" relative="1" as="geometry">
            <mxPoint x="81" y="-10" as="offset" />
          </mxGeometry>
        </mxCell>
        <mxCell id="BA5nA2Hfeq59c8QXaOiR-112" value="remove" style="rounded=1;whiteSpace=wrap;html=1;" parent="mLLBI0nYe4yU47RO7_1Q-16" vertex="1">
          <mxGeometry x="359.5" y="107.15000000000009" width="80" height="30" as="geometry" />
        </mxCell>
        <mxCell id="BA5nA2Hfeq59c8QXaOiR-113" value="" style="endArrow=open;endFill=1;endSize=12;html=1;rounded=0;entryX=0;entryY=0.25;entryDx=0;entryDy=0;exitX=1;exitY=0.25;exitDx=0;exitDy=0;" parent="mLLBI0nYe4yU47RO7_1Q-16" source="BA5nA2Hfeq59c8QXaOiR-106" target="BA5nA2Hfeq59c8QXaOiR-112" edge="1">
          <mxGeometry width="160" relative="1" as="geometry">
            <mxPoint x="260.3000000000002" y="213.75" as="sourcePoint" />
            <mxPoint x="500.3000000000002" y="170.25" as="targetPoint" />
          </mxGeometry>
        </mxCell>
        <mxCell id="BA5nA2Hfeq59c8QXaOiR-114" value="removeObject(objectId)" style="edgeLabel;html=1;align=center;verticalAlign=middle;resizable=0;points=[];" parent="BA5nA2Hfeq59c8QXaOiR-113" vertex="1" connectable="0">
          <mxGeometry x="0.3245" relative="1" as="geometry">
            <mxPoint x="33" y="-18" as="offset" />
          </mxGeometry>
        </mxCell>
        <mxCell id="BA5nA2Hfeq59c8QXaOiR-115" value="" style="endArrow=open;endFill=1;endSize=12;html=1;rounded=0;exitX=0;exitY=0.75;exitDx=0;exitDy=0;entryX=1;entryY=0.75;entryDx=0;entryDy=0;" parent="mLLBI0nYe4yU47RO7_1Q-16" source="BA5nA2Hfeq59c8QXaOiR-112" edge="1" target="BA5nA2Hfeq59c8QXaOiR-106">
          <mxGeometry width="160" relative="1" as="geometry">
            <mxPoint x="500.3000000000002" y="195.25" as="sourcePoint" />
            <mxPoint x="198.30000000000018" y="131.25" as="targetPoint" />
          </mxGeometry>
        </mxCell>
        <mxCell id="BA5nA2Hfeq59c8QXaOiR-116" value="&lt;div&gt;obj:=objects.first(o | o.id=objectId)&lt;/div&gt;&lt;div&gt;objects.remove(obj)&lt;/div&gt;&lt;div&gt;return obj&lt;br&gt;&lt;/div&gt;" style="edgeLabel;html=1;align=center;verticalAlign=middle;resizable=0;points=[];" parent="BA5nA2Hfeq59c8QXaOiR-115" vertex="1" connectable="0">
          <mxGeometry x="-0.2315" y="2" relative="1" as="geometry">
            <mxPoint x="-2" y="40" as="offset" />
          </mxGeometry>
        </mxCell>
        <mxCell id="BA5nA2Hfeq59c8QXaOiR-117" value="addObject" style="rounded=1;whiteSpace=wrap;html=1;" parent="mLLBI0nYe4yU47RO7_1Q-16" vertex="1">
          <mxGeometry x="70.70000000000005" y="227.1500000000001" width="98.8" height="35.79" as="geometry" />
        </mxCell>
        <mxCell id="BA5nA2Hfeq59c8QXaOiR-118" value="" style="endArrow=open;endFill=1;endSize=12;html=1;rounded=0;entryX=0.75;entryY=0;entryDx=0;entryDy=0;exitX=0.5;exitY=1;exitDx=0;exitDy=0;" parent="mLLBI0nYe4yU47RO7_1Q-16" source="BA5nA2Hfeq59c8QXaOiR-106" target="BA5nA2Hfeq59c8QXaOiR-117" edge="1">
          <mxGeometry width="160" relative="1" as="geometry">
            <mxPoint x="147.10000000000036" y="162.05999999999995" as="sourcePoint" />
            <mxPoint x="211.5" y="276.96000000000004" as="targetPoint" />
          </mxGeometry>
        </mxCell>
        <mxCell id="BA5nA2Hfeq59c8QXaOiR-119" value="objects.add(obj)" style="edgeLabel;html=1;align=center;verticalAlign=middle;resizable=0;points=[];" parent="BA5nA2Hfeq59c8QXaOiR-118" vertex="1" connectable="0">
          <mxGeometry x="0.3245" relative="1" as="geometry">
            <mxPoint x="-79" y="-19" as="offset" />
          </mxGeometry>
        </mxCell>
        <mxCell id="BA5nA2Hfeq59c8QXaOiR-120" value="" style="endArrow=open;endFill=1;endSize=12;html=1;rounded=0;exitX=0.25;exitY=0;exitDx=0;exitDy=0;entryX=0.135;entryY=0.97;entryDx=0;entryDy=0;entryPerimeter=0;" parent="mLLBI0nYe4yU47RO7_1Q-16" source="BA5nA2Hfeq59c8QXaOiR-117" target="BA5nA2Hfeq59c8QXaOiR-106" edge="1">
          <mxGeometry width="160" relative="1" as="geometry">
            <mxPoint x="211.5" y="301.96000000000004" as="sourcePoint" />
            <mxPoint x="119.89999999999964" y="161.25" as="targetPoint" />
          </mxGeometry>
        </mxCell>
        <mxCell id="BA5nA2Hfeq59c8QXaOiR-121" value="addObject(objectId)" style="edgeLabel;html=1;align=center;verticalAlign=middle;resizable=0;points=[];" parent="BA5nA2Hfeq59c8QXaOiR-120" vertex="1" connectable="0">
          <mxGeometry x="-0.2315" y="2" relative="1" as="geometry">
            <mxPoint x="91" y="23" as="offset" />
          </mxGeometry>
        </mxCell>
        <mxCell id="mLLBI0nYe4yU47RO7_1Q-24" value="" style="group" vertex="1" connectable="0" parent="WIyWlLk6GJQsqaUBKTNV-1">
          <mxGeometry x="1960" y="2576.2" width="427" height="265.0899999999999" as="geometry" />
        </mxCell>
        <mxCell id="BA5nA2Hfeq59c8QXaOiR-123" value="" style="ellipse;html=1;shape=startState;fillColor=#000000;strokeColor=#ff0000;" parent="mLLBI0nYe4yU47RO7_1Q-24" vertex="1">
          <mxGeometry x="85.80000000000018" y="98.75" width="30" height="30" as="geometry" />
        </mxCell>
        <mxCell id="BA5nA2Hfeq59c8QXaOiR-124" value="" style="edgeStyle=orthogonalEdgeStyle;html=1;verticalAlign=bottom;endArrow=open;endSize=8;strokeColor=#ff0000;rounded=0;exitX=1;exitY=0.5;exitDx=0;exitDy=0;entryX=0;entryY=0.5;entryDx=0;entryDy=0;" parent="mLLBI0nYe4yU47RO7_1Q-24" source="BA5nA2Hfeq59c8QXaOiR-123" edge="1">
          <mxGeometry relative="1" as="geometry">
            <mxPoint x="135.80000000000018" y="113.75" as="targetPoint" />
            <mxPoint x="405.8000000000002" y="148.75" as="sourcePoint" />
          </mxGeometry>
        </mxCell>
        <mxCell id="BA5nA2Hfeq59c8QXaOiR-125" value="Idle" style="rounded=1;whiteSpace=wrap;html=1;" parent="mLLBI0nYe4yU47RO7_1Q-24" vertex="1">
          <mxGeometry x="137.80000000000018" y="98.75" width="80" height="30" as="geometry" />
        </mxCell>
        <mxCell id="BA5nA2Hfeq59c8QXaOiR-126" value="Add" style="rounded=1;whiteSpace=wrap;html=1;" parent="mLLBI0nYe4yU47RO7_1Q-24" vertex="1">
          <mxGeometry x="187" y="13.75" width="80" height="30" as="geometry" />
        </mxCell>
        <mxCell id="BA5nA2Hfeq59c8QXaOiR-127" value="" style="endArrow=open;endFill=1;endSize=12;html=1;rounded=0;entryX=0;entryY=0.75;entryDx=0;entryDy=0;exitX=0.5;exitY=0;exitDx=0;exitDy=0;" parent="mLLBI0nYe4yU47RO7_1Q-24" source="BA5nA2Hfeq59c8QXaOiR-125" target="BA5nA2Hfeq59c8QXaOiR-126" edge="1">
          <mxGeometry width="160" relative="1" as="geometry">
            <mxPoint x="177.80000000000018" y="60.25" as="sourcePoint" />
            <mxPoint x="417.8000000000002" y="55.25" as="targetPoint" />
          </mxGeometry>
        </mxCell>
        <mxCell id="BA5nA2Hfeq59c8QXaOiR-128" value="[objects.size() &amp;lt; 5] /&lt;br&gt;addObject(object)" style="edgeLabel;html=1;align=center;verticalAlign=middle;resizable=0;points=[];" parent="BA5nA2Hfeq59c8QXaOiR-127" vertex="1" connectable="0">
          <mxGeometry x="0.3245" relative="1" as="geometry">
            <mxPoint x="-54" as="offset" />
          </mxGeometry>
        </mxCell>
        <mxCell id="BA5nA2Hfeq59c8QXaOiR-129" value="" style="endArrow=open;endFill=1;endSize=12;html=1;rounded=0;exitX=0.25;exitY=1;exitDx=0;exitDy=0;entryX=0.75;entryY=0;entryDx=0;entryDy=0;" parent="mLLBI0nYe4yU47RO7_1Q-24" source="BA5nA2Hfeq59c8QXaOiR-126" target="BA5nA2Hfeq59c8QXaOiR-125" edge="1">
          <mxGeometry width="160" relative="1" as="geometry">
            <mxPoint x="417.8000000000002" y="80.25" as="sourcePoint" />
            <mxPoint x="177.80000000000018" y="75.25" as="targetPoint" />
          </mxGeometry>
        </mxCell>
        <mxCell id="BA5nA2Hfeq59c8QXaOiR-130" value="objects.add(object)" style="edgeLabel;html=1;align=center;verticalAlign=middle;resizable=0;points=[];" parent="BA5nA2Hfeq59c8QXaOiR-129" vertex="1" connectable="0">
          <mxGeometry x="-0.2315" y="2" relative="1" as="geometry">
            <mxPoint x="60" y="-5" as="offset" />
          </mxGeometry>
        </mxCell>
        <mxCell id="BA5nA2Hfeq59c8QXaOiR-131" value="remove" style="rounded=1;whiteSpace=wrap;html=1;" parent="mLLBI0nYe4yU47RO7_1Q-24" vertex="1">
          <mxGeometry x="347" y="128.75" width="80" height="30" as="geometry" />
        </mxCell>
        <mxCell id="BA5nA2Hfeq59c8QXaOiR-132" value="" style="endArrow=open;endFill=1;endSize=12;html=1;rounded=0;entryX=0;entryY=0.25;entryDx=0;entryDy=0;exitX=1;exitY=0.25;exitDx=0;exitDy=0;" parent="mLLBI0nYe4yU47RO7_1Q-24" source="BA5nA2Hfeq59c8QXaOiR-125" target="BA5nA2Hfeq59c8QXaOiR-131" edge="1">
          <mxGeometry width="160" relative="1" as="geometry">
            <mxPoint x="267.8000000000002" y="213.75" as="sourcePoint" />
            <mxPoint x="507.8000000000002" y="170.25" as="targetPoint" />
          </mxGeometry>
        </mxCell>
        <mxCell id="BA5nA2Hfeq59c8QXaOiR-133" value="[objects.size() &amp;gt; 0] /&lt;br&gt;removeObject(objectId)" style="edgeLabel;html=1;align=center;verticalAlign=middle;resizable=0;points=[];" parent="BA5nA2Hfeq59c8QXaOiR-132" vertex="1" connectable="0">
          <mxGeometry x="0.3245" relative="1" as="geometry">
            <mxPoint x="12" y="-27" as="offset" />
          </mxGeometry>
        </mxCell>
        <mxCell id="BA5nA2Hfeq59c8QXaOiR-134" value="" style="endArrow=open;endFill=1;endSize=12;html=1;rounded=0;exitX=0;exitY=0.75;exitDx=0;exitDy=0;entryX=1;entryY=0.75;entryDx=0;entryDy=0;" parent="mLLBI0nYe4yU47RO7_1Q-24" source="BA5nA2Hfeq59c8QXaOiR-131" edge="1" target="BA5nA2Hfeq59c8QXaOiR-125">
          <mxGeometry width="160" relative="1" as="geometry">
            <mxPoint x="507.8000000000002" y="195.25" as="sourcePoint" />
            <mxPoint x="205.80000000000018" y="131.25" as="targetPoint" />
          </mxGeometry>
        </mxCell>
        <mxCell id="BA5nA2Hfeq59c8QXaOiR-135" value="&lt;div&gt;obj:=objects.first(o | o.id=objectId)&lt;/div&gt;&lt;div&gt;objects.remove(obj)&lt;/div&gt;&lt;div&gt;return obj&lt;br&gt;&lt;/div&gt;" style="edgeLabel;html=1;align=center;verticalAlign=middle;resizable=0;points=[];" parent="BA5nA2Hfeq59c8QXaOiR-134" vertex="1" connectable="0">
          <mxGeometry x="-0.2315" y="2" relative="1" as="geometry">
            <mxPoint x="-38" y="26" as="offset" />
          </mxGeometry>
        </mxCell>
        <mxCell id="mLLBI0nYe4yU47RO7_1Q-19" value="is full" style="rounded=1;whiteSpace=wrap;html=1;" vertex="1" parent="mLLBI0nYe4yU47RO7_1Q-24">
          <mxGeometry x="67" y="229.29999999999995" width="98.8" height="35.79" as="geometry" />
        </mxCell>
        <mxCell id="mLLBI0nYe4yU47RO7_1Q-20" value="" style="endArrow=open;endFill=1;endSize=12;html=1;rounded=0;entryX=0.75;entryY=0;entryDx=0;entryDy=0;exitX=0.5;exitY=1;exitDx=0;exitDy=0;" edge="1" parent="mLLBI0nYe4yU47RO7_1Q-24" target="mLLBI0nYe4yU47RO7_1Q-19">
          <mxGeometry width="160" relative="1" as="geometry">
            <mxPoint x="166.60000000000036" y="130.89999999999986" as="sourcePoint" />
            <mxPoint x="-1752.7" y="-853.74" as="targetPoint" />
          </mxGeometry>
        </mxCell>
        <mxCell id="mLLBI0nYe4yU47RO7_1Q-21" value="return objects.size() &amp;gt;= 5" style="edgeLabel;html=1;align=center;verticalAlign=middle;resizable=0;points=[];" vertex="1" connectable="0" parent="mLLBI0nYe4yU47RO7_1Q-20">
          <mxGeometry x="0.3245" relative="1" as="geometry">
            <mxPoint x="-103" y="-19" as="offset" />
          </mxGeometry>
        </mxCell>
        <mxCell id="mLLBI0nYe4yU47RO7_1Q-22" value="" style="endArrow=open;endFill=1;endSize=12;html=1;rounded=0;exitX=0.25;exitY=0;exitDx=0;exitDy=0;entryX=0.135;entryY=0.97;entryDx=0;entryDy=0;entryPerimeter=0;" edge="1" parent="mLLBI0nYe4yU47RO7_1Q-24" source="mLLBI0nYe4yU47RO7_1Q-19">
          <mxGeometry width="160" relative="1" as="geometry">
            <mxPoint x="-1752.7" y="-828.74" as="sourcePoint" />
            <mxPoint x="137.4000000000001" y="129.99999999999977" as="targetPoint" />
          </mxGeometry>
        </mxCell>
        <mxCell id="mLLBI0nYe4yU47RO7_1Q-23" value="isFull()" style="edgeLabel;html=1;align=center;verticalAlign=middle;resizable=0;points=[];" vertex="1" connectable="0" parent="mLLBI0nYe4yU47RO7_1Q-22">
          <mxGeometry x="-0.2315" y="2" relative="1" as="geometry">
            <mxPoint x="91" y="23" as="offset" />
          </mxGeometry>
        </mxCell>
        <mxCell id="mLLBI0nYe4yU47RO7_1Q-25" value="&lt;font style=&quot;font-size: 20px&quot;&gt;Domain Class Diagram&lt;/font&gt;" style="text;html=1;align=center;verticalAlign=middle;resizable=0;points=[];autosize=1;strokeColor=none;fillColor=none;" vertex="1" parent="WIyWlLk6GJQsqaUBKTNV-1">
          <mxGeometry x="20" y="20" width="220" height="20" as="geometry" />
        </mxCell>
        <mxCell id="mLLBI0nYe4yU47RO7_1Q-26" value="Use cases" style="text;html=1;align=center;verticalAlign=middle;resizable=0;points=[];autosize=1;strokeColor=none;fillColor=none;fontSize=20;" vertex="1" parent="WIyWlLk6GJQsqaUBKTNV-1">
          <mxGeometry x="45" y="555" width="110" height="30" as="geometry" />
        </mxCell>
        <mxCell id="mLLBI0nYe4yU47RO7_1Q-27" value="Component Diagram" style="text;html=1;align=center;verticalAlign=middle;resizable=0;points=[];autosize=1;strokeColor=none;fillColor=none;fontSize=20;" vertex="1" parent="WIyWlLk6GJQsqaUBKTNV-1">
          <mxGeometry x="50" y="1102.85" width="200" height="30" as="geometry" />
        </mxCell>
        <mxCell id="mLLBI0nYe4yU47RO7_1Q-28" value="Detailed Class Diagram" style="text;html=1;align=center;verticalAlign=middle;resizable=0;points=[];autosize=1;strokeColor=none;fillColor=none;fontSize=20;" vertex="1" parent="WIyWlLk6GJQsqaUBKTNV-1">
          <mxGeometry x="110" y="1620" width="230" height="30" as="geometry" />
        </mxCell>
        <mxCell id="mLLBI0nYe4yU47RO7_1Q-29" value="Life Cycle State Machines" style="text;html=1;align=center;verticalAlign=middle;resizable=0;points=[];autosize=1;strokeColor=none;fillColor=none;fontSize=20;" vertex="1" parent="WIyWlLk6GJQsqaUBKTNV-1">
          <mxGeometry x="40" y="2470" width="250" height="30" as="geometry" />
        </mxCell>
        <mxCell id="mLLBI0nYe4yU47RO7_1Q-30" value="Game:" style="text;html=1;align=center;verticalAlign=middle;resizable=0;points=[];autosize=1;strokeColor=none;fillColor=none;fontSize=20;" vertex="1" parent="WIyWlLk6GJQsqaUBKTNV-1">
          <mxGeometry x="90" y="2535" width="80" height="30" as="geometry" />
        </mxCell>
        <mxCell id="mLLBI0nYe4yU47RO7_1Q-31" value="" style="group" vertex="1" connectable="0" parent="WIyWlLk6GJQsqaUBKTNV-1">
          <mxGeometry x="141.19999999999982" y="2580" width="368.8000000000002" height="257.5" as="geometry" />
        </mxCell>
        <mxCell id="BA5nA2Hfeq59c8QXaOiR-85" value="" style="ellipse;html=1;shape=startState;fillColor=#000000;strokeColor=#ff0000;" parent="mLLBI0nYe4yU47RO7_1Q-31" vertex="1">
          <mxGeometry x="38.80000000000018" y="85" width="30" height="30" as="geometry" />
        </mxCell>
        <mxCell id="BA5nA2Hfeq59c8QXaOiR-86" value="" style="edgeStyle=orthogonalEdgeStyle;html=1;verticalAlign=bottom;endArrow=open;endSize=8;strokeColor=#ff0000;rounded=0;exitX=1;exitY=0.5;exitDx=0;exitDy=0;entryX=0;entryY=0.5;entryDx=0;entryDy=0;" parent="mLLBI0nYe4yU47RO7_1Q-31" source="BA5nA2Hfeq59c8QXaOiR-85" edge="1">
          <mxGeometry relative="1" as="geometry">
            <mxPoint x="88.80000000000018" y="100" as="targetPoint" />
            <mxPoint x="358.8000000000002" y="135" as="sourcePoint" />
          </mxGeometry>
        </mxCell>
        <mxCell id="BA5nA2Hfeq59c8QXaOiR-87" value="Idle" style="rounded=1;whiteSpace=wrap;html=1;" parent="mLLBI0nYe4yU47RO7_1Q-31" vertex="1">
          <mxGeometry x="90.80000000000018" y="85" width="80" height="30" as="geometry" />
        </mxCell>
        <mxCell id="BA5nA2Hfeq59c8QXaOiR-88" value="List" style="rounded=1;whiteSpace=wrap;html=1;" parent="mLLBI0nYe4yU47RO7_1Q-31" vertex="1">
          <mxGeometry x="198.80000000000018" width="80" height="30" as="geometry" />
        </mxCell>
        <mxCell id="BA5nA2Hfeq59c8QXaOiR-89" value="" style="endArrow=open;endFill=1;endSize=12;html=1;rounded=0;entryX=0;entryY=0.75;entryDx=0;entryDy=0;exitX=0.5;exitY=0;exitDx=0;exitDy=0;" parent="mLLBI0nYe4yU47RO7_1Q-31" source="BA5nA2Hfeq59c8QXaOiR-87" target="BA5nA2Hfeq59c8QXaOiR-88" edge="1">
          <mxGeometry width="160" relative="1" as="geometry">
            <mxPoint x="130.80000000000018" y="46.5" as="sourcePoint" />
            <mxPoint x="370.8000000000002" y="41.5" as="targetPoint" />
          </mxGeometry>
        </mxCell>
        <mxCell id="BA5nA2Hfeq59c8QXaOiR-90" value="listAvalibleObjects(playerId)" style="edgeLabel;html=1;align=center;verticalAlign=middle;resizable=0;points=[];" parent="BA5nA2Hfeq59c8QXaOiR-89" vertex="1" connectable="0">
          <mxGeometry x="0.3245" relative="1" as="geometry">
            <mxPoint x="-77" y="6" as="offset" />
          </mxGeometry>
        </mxCell>
        <mxCell id="BA5nA2Hfeq59c8QXaOiR-91" value="" style="endArrow=open;endFill=1;endSize=12;html=1;rounded=0;exitX=0.25;exitY=1;exitDx=0;exitDy=0;entryX=0.75;entryY=0;entryDx=0;entryDy=0;" parent="mLLBI0nYe4yU47RO7_1Q-31" source="BA5nA2Hfeq59c8QXaOiR-88" target="BA5nA2Hfeq59c8QXaOiR-87" edge="1">
          <mxGeometry width="160" relative="1" as="geometry">
            <mxPoint x="370.8000000000002" y="66.5" as="sourcePoint" />
            <mxPoint x="130.80000000000018" y="61.5" as="targetPoint" />
          </mxGeometry>
        </mxCell>
        <mxCell id="BA5nA2Hfeq59c8QXaOiR-92" value="return players[playerId].listAvalibleObjects()" style="edgeLabel;html=1;align=center;verticalAlign=middle;resizable=0;points=[];" parent="BA5nA2Hfeq59c8QXaOiR-91" vertex="1" connectable="0">
          <mxGeometry x="-0.2315" y="2" relative="1" as="geometry">
            <mxPoint x="96" y="11" as="offset" />
          </mxGeometry>
        </mxCell>
        <mxCell id="BA5nA2Hfeq59c8QXaOiR-93" value="takeObject" style="rounded=1;whiteSpace=wrap;html=1;" parent="mLLBI0nYe4yU47RO7_1Q-31" vertex="1">
          <mxGeometry x="288.8000000000002" y="115" width="80" height="30" as="geometry" />
        </mxCell>
        <mxCell id="BA5nA2Hfeq59c8QXaOiR-94" value="" style="endArrow=open;endFill=1;endSize=12;html=1;rounded=0;entryX=0;entryY=0.5;entryDx=0;entryDy=0;exitX=1;exitY=0.75;exitDx=0;exitDy=0;" parent="mLLBI0nYe4yU47RO7_1Q-31" source="BA5nA2Hfeq59c8QXaOiR-87" target="BA5nA2Hfeq59c8QXaOiR-93" edge="1">
          <mxGeometry width="160" relative="1" as="geometry">
            <mxPoint x="220.80000000000018" y="200" as="sourcePoint" />
            <mxPoint x="460.8000000000002" y="156.5" as="targetPoint" />
          </mxGeometry>
        </mxCell>
        <mxCell id="BA5nA2Hfeq59c8QXaOiR-95" value="takeObject(playerId, objectId)" style="edgeLabel;html=1;align=center;verticalAlign=middle;resizable=0;points=[];" parent="BA5nA2Hfeq59c8QXaOiR-94" vertex="1" connectable="0">
          <mxGeometry x="0.3245" relative="1" as="geometry">
            <mxPoint x="22" y="-20" as="offset" />
          </mxGeometry>
        </mxCell>
        <mxCell id="BA5nA2Hfeq59c8QXaOiR-96" value="" style="endArrow=open;endFill=1;endSize=12;html=1;rounded=0;exitX=0;exitY=1;exitDx=0;exitDy=0;" parent="mLLBI0nYe4yU47RO7_1Q-31" source="BA5nA2Hfeq59c8QXaOiR-93" edge="1">
          <mxGeometry width="160" relative="1" as="geometry">
            <mxPoint x="460.8000000000002" y="181.5" as="sourcePoint" />
            <mxPoint x="158.80000000000018" y="117.5" as="targetPoint" />
          </mxGeometry>
        </mxCell>
        <mxCell id="BA5nA2Hfeq59c8QXaOiR-97" value="&lt;div&gt;return players[playerId].takeObject(objectId)&lt;/div&gt;" style="edgeLabel;html=1;align=center;verticalAlign=middle;resizable=0;points=[];" parent="BA5nA2Hfeq59c8QXaOiR-96" vertex="1" connectable="0">
          <mxGeometry x="-0.2315" y="2" relative="1" as="geometry">
            <mxPoint x="12" y="18" as="offset" />
          </mxGeometry>
        </mxCell>
        <mxCell id="BA5nA2Hfeq59c8QXaOiR-98" value="layDownObject" style="rounded=1;whiteSpace=wrap;html=1;" parent="mLLBI0nYe4yU47RO7_1Q-31" vertex="1">
          <mxGeometry y="221.71000000000004" width="98.8" height="35.79" as="geometry" />
        </mxCell>
        <mxCell id="BA5nA2Hfeq59c8QXaOiR-99" value="" style="endArrow=open;endFill=1;endSize=12;html=1;rounded=0;entryX=0.75;entryY=0;entryDx=0;entryDy=0;exitX=0.5;exitY=1;exitDx=0;exitDy=0;" parent="mLLBI0nYe4yU47RO7_1Q-31" source="BA5nA2Hfeq59c8QXaOiR-87" target="BA5nA2Hfeq59c8QXaOiR-98" edge="1">
          <mxGeometry width="160" relative="1" as="geometry">
            <mxPoint x="107.60000000000036" y="148.30999999999995" as="sourcePoint" />
            <mxPoint x="172" y="263.21000000000004" as="targetPoint" />
          </mxGeometry>
        </mxCell>
        <mxCell id="BA5nA2Hfeq59c8QXaOiR-100" value="players[playerId].layDownObject(objectId)" style="edgeLabel;html=1;align=center;verticalAlign=middle;resizable=0;points=[];" parent="BA5nA2Hfeq59c8QXaOiR-99" vertex="1" connectable="0">
          <mxGeometry x="0.3245" relative="1" as="geometry">
            <mxPoint x="-114" y="-42" as="offset" />
          </mxGeometry>
        </mxCell>
        <mxCell id="BA5nA2Hfeq59c8QXaOiR-101" value="" style="endArrow=open;endFill=1;endSize=12;html=1;rounded=0;exitX=0.25;exitY=0;exitDx=0;exitDy=0;entryX=0.135;entryY=0.97;entryDx=0;entryDy=0;entryPerimeter=0;" parent="mLLBI0nYe4yU47RO7_1Q-31" source="BA5nA2Hfeq59c8QXaOiR-98" target="BA5nA2Hfeq59c8QXaOiR-87" edge="1">
          <mxGeometry width="160" relative="1" as="geometry">
            <mxPoint x="172" y="288.21000000000004" as="sourcePoint" />
            <mxPoint x="80.39999999999964" y="147.5" as="targetPoint" />
          </mxGeometry>
        </mxCell>
        <mxCell id="BA5nA2Hfeq59c8QXaOiR-102" value="layDownObject(playerId, objectId)" style="edgeLabel;html=1;align=center;verticalAlign=middle;resizable=0;points=[];" parent="BA5nA2Hfeq59c8QXaOiR-101" vertex="1" connectable="0">
          <mxGeometry x="-0.2315" y="2" relative="1" as="geometry">
            <mxPoint x="118" y="33" as="offset" />
          </mxGeometry>
        </mxCell>
        <mxCell id="mLLBI0nYe4yU47RO7_1Q-32" value="Player" style="text;html=1;align=center;verticalAlign=middle;resizable=0;points=[];autosize=1;strokeColor=none;fillColor=none;fontSize=20;" vertex="1" parent="WIyWlLk6GJQsqaUBKTNV-1">
          <mxGeometry x="770" y="2500" width="70" height="30" as="geometry" />
        </mxCell>
        <mxCell id="mLLBI0nYe4yU47RO7_1Q-33" value="Room" style="text;html=1;align=center;verticalAlign=middle;resizable=0;points=[];autosize=1;strokeColor=none;fillColor=none;fontSize=20;" vertex="1" parent="WIyWlLk6GJQsqaUBKTNV-1">
          <mxGeometry x="1400" y="2500" width="70" height="30" as="geometry" />
        </mxCell>
        <mxCell id="mLLBI0nYe4yU47RO7_1Q-34" value="Inventory" style="text;html=1;align=center;verticalAlign=middle;resizable=0;points=[];autosize=1;strokeColor=none;fillColor=none;fontSize=20;" vertex="1" parent="WIyWlLk6GJQsqaUBKTNV-1">
          <mxGeometry x="1990" y="2500" width="100" height="30" as="geometry" />
        </mxCell>
        <mxCell id="mLLBI0nYe4yU47RO7_1Q-37" value="Sequence Diagrams" style="text;html=1;align=center;verticalAlign=middle;resizable=0;points=[];autosize=1;strokeColor=none;fillColor=none;fontSize=20;" vertex="1" parent="WIyWlLk6GJQsqaUBKTNV-1">
          <mxGeometry x="95" y="3125" width="200" height="30" as="geometry" />
        </mxCell>
        <mxCell id="mLLBI0nYe4yU47RO7_1Q-38" value="" style="rounded=0;orthogonalLoop=1;jettySize=auto;html=1;endArrow=block;endFill=1;entryX=0.917;entryY=0.222;entryDx=0;entryDy=0;entryPerimeter=0;" edge="1" parent="WIyWlLk6GJQsqaUBKTNV-1">
          <mxGeometry x="0.4431" y="23" relative="1" as="geometry">
            <mxPoint x="505.16999999999973" y="3391.66" as="targetPoint" />
            <mxPoint x="496.00000000000034" y="3375" as="sourcePoint" />
            <Array as="points">
              <mxPoint x="521.61" y="3375" />
              <mxPoint x="521.61" y="3392" />
            </Array>
            <mxPoint as="offset" />
          </mxGeometry>
        </mxCell>
        <mxCell id="mLLBI0nYe4yU47RO7_1Q-39" value="getPlayer(pid)" style="edgeLabel;html=1;align=center;verticalAlign=middle;resizable=0;points=[];" vertex="1" connectable="0" parent="mLLBI0nYe4yU47RO7_1Q-38">
          <mxGeometry x="-0.2219" y="-1" relative="1" as="geometry">
            <mxPoint x="42" y="4" as="offset" />
          </mxGeometry>
        </mxCell>
        <mxCell id="mLLBI0nYe4yU47RO7_1Q-40" value="isFull()" style="edgeStyle=none;rounded=0;orthogonalLoop=1;jettySize=auto;html=1;endArrow=block;endFill=1;exitX=1;exitY=0.076;exitDx=0;exitDy=0;exitPerimeter=0;entryX=-0.075;entryY=-0.025;entryDx=0;entryDy=0;entryPerimeter=0;" edge="1" parent="WIyWlLk6GJQsqaUBKTNV-1" target="mLLBI0nYe4yU47RO7_1Q-41">
          <mxGeometry relative="1" as="geometry">
            <mxPoint x="653.0000000000001" y="3488.859999999999" as="sourcePoint" />
            <mxPoint x="797.0000000000001" y="3486.9999999999995" as="targetPoint" />
          </mxGeometry>
        </mxCell>
        <mxCell id="mLLBI0nYe4yU47RO7_1Q-47" value="Use case: Take Object" style="text;html=1;align=center;verticalAlign=middle;resizable=0;points=[];autosize=1;strokeColor=none;fillColor=none;fontSize=20;" vertex="1" parent="WIyWlLk6GJQsqaUBKTNV-1">
          <mxGeometry x="110" y="3170" width="220" height="30" as="geometry" />
        </mxCell>
      </root>
    </mxGraphModel>
  </diagram>
</mxfile>
